<svg width="35" height="35" viewBox="0 0 35 35" fill="none" xmlns="http://www.w3.org/2000/svg">
<g id="backup_24px">
<path id="icon/action/backup_24px" fill-rule="evenodd" clip-rule="evenodd" d="M28.2188 14.6417C27.2271 9.61041 22.8083 5.83333 17.5 5.83333C13.2854 5.83333 9.625 8.22499 7.80208 11.725C3.4125 12.1917 0 15.9104 0 20.4167C0 25.2437 3.92292 29.1667 8.75 29.1667H27.7083C31.7333 29.1667 35 25.9 35 21.875C35 18.025 32.0104 14.9042 28.2188 14.6417ZM27.7083 26.25H8.74992C5.527 26.25 2.91658 23.6396 2.91658 20.4167C2.91658 17.4271 5.14783 14.9333 8.10825 14.6271L9.66867 14.4667L10.3978 13.0812C11.7833 10.4125 14.4958 8.74999 17.4999 8.74999C21.3208 8.74999 24.6166 11.4625 25.3603 15.2104L25.7978 17.3979L28.0291 17.5583C30.3041 17.7042 32.0833 19.6146 32.0833 21.875C32.0833 24.2812 30.1145 26.25 27.7083 26.25ZM15.3853 18.9583H11.6666L17.4999 13.125L23.3333 18.9583H19.6145V23.3333H15.3853V18.9583Z" fill="#27AE60"/>
</g>
</svg>
