<svg width="101" height="123" viewBox="0 0 101 123" fill="none" xmlns="http://www.w3.org/2000/svg">
<path fill-rule="evenodd" clip-rule="evenodd" d="M69.4204 0.541672H11.7083C5.58718 0.541672 0.625 5.50385 0.625 11.625V111.375C0.625 117.496 5.58718 122.458 11.7083 122.458H89.2917C95.4128 122.458 100.375 117.496 100.375 111.375V31.4962L69.4204 0.541672ZM11.7083 11.625H56.0417V33.7917C56.0417 39.9128 61.0038 44.875 67.125 44.875H89.2917V111.375H11.7083V11.625ZM67.125 33.7917V13.9204L86.9962 33.7917H67.125ZM44.9583 50.4167V67.0417H28.3333V78.125H44.9583V94.75H56.0417V78.125H72.6667V67.0417H56.0417V50.4167H44.9583Z" fill="#DADADA"/>
</svg>
