<svg width="156" height="156" viewBox="0 0 156 156" fill="none" xmlns="http://www.w3.org/2000/svg">
<path fill-rule="evenodd" clip-rule="evenodd" d="M125.775 65.26C121.355 42.835 101.66 26 78 26C59.215 26 42.9 36.66 34.775 52.26C15.21 54.34 0 70.915 0 91C0 112.515 17.485 130 39 130H123.5C141.44 130 156 115.44 156 97.5C156 80.34 142.675 66.43 125.775 65.26ZM123.498 117H38.9977C24.6327 117 12.9977 105.365 12.9977 91C12.9977 77.675 22.9427 66.56 36.1377 65.195L43.0927 64.48L46.3427 58.305C52.5177 46.41 64.6077 39 77.9977 39C95.0277 39 109.718 51.09 113.033 67.795L114.983 77.545L124.928 78.26C135.068 78.91 142.998 87.425 142.998 97.5C142.998 108.225 134.223 117 123.498 117ZM68.5727 84.5H51.9977L77.9977 58.5L103.998 84.5H87.4227V104H68.5727V84.5Z" fill="#E0E0E0"/>
</svg>
