<svg width="212" height="155" viewBox="0 0 212 155" fill="none" xmlns="http://www.w3.org/2000/svg">
<path d="M99.3454 110.327L98.9467 107.353L99.3454 110.327ZM166.6 49.3151L163.679 48.6297L166.6 49.3151ZM179.55 3.41945C178.677 2.01119 176.828 1.57718 175.42 2.45007L152.471 16.6747C151.062 17.5476 150.628 19.3968 151.501 20.8051C152.374 22.2134 154.223 22.6474 155.632 21.7745L176.031 9.13038L188.675 29.5296C189.548 30.9378 191.397 31.3718 192.805 30.499C194.213 29.6261 194.648 27.7768 193.775 26.3685L179.55 3.41945ZM16.3986 124.473L99.744 113.3L98.9467 107.353L15.6014 118.527L16.3986 124.473ZM169.52 50.0006L179.921 5.68543L174.079 4.31451L163.679 48.6297L169.52 50.0006ZM99.744 113.3C133.884 108.723 161.65 83.5352 169.52 50.0006L163.679 48.6297C156.377 79.7401 130.619 103.108 98.9467 107.353L99.744 113.3Z" fill="#1F5FBE"/>
</svg>
