<svg width="670" height="90" viewBox="0 0 670 90" fill="none" xmlns="http://www.w3.org/2000/svg">
<rect width="670" height="90" fill="#18A0FB" fill-opacity="0.42"/>
<path d="M82.5312 33.5859C82.3203 35.3906 81.6523 36.7852 80.5273 37.7695C79.4102 38.7461 77.9219 39.2344 76.0625 39.2344C74.0469 39.2344 72.4297 38.5117 71.2109 37.0664C70 35.6211 69.3945 33.6875 69.3945 31.2656V29.625C69.3945 28.0391 69.6758 26.6445 70.2383 25.4414C70.8086 24.2383 71.6133 23.3164 72.6523 22.6758C73.6914 22.0273 74.8945 21.7031 76.2617 21.7031C78.0742 21.7031 79.5273 22.2109 80.6211 23.2266C81.7148 24.2344 82.3516 25.6328 82.5312 27.4219H80.2695C80.0742 26.0625 79.6484 25.0781 78.9922 24.4688C78.3438 23.8594 77.4336 23.5547 76.2617 23.5547C74.8242 23.5547 73.6953 24.0859 72.875 25.1484C72.0625 26.2109 71.6562 27.7227 71.6562 29.6836V31.3359C71.6562 33.1875 72.043 34.6602 72.8164 35.7539C73.5898 36.8477 74.6719 37.3945 76.0625 37.3945C77.3125 37.3945 78.2695 37.1133 78.9336 36.5508C79.6055 35.9805 80.0508 34.9922 80.2695 33.5859H82.5312ZM87.6289 39H85.4609V21H87.6289V39ZM93.4648 39H91.2969V26.3203H93.4648V39ZM91.1211 22.957C91.1211 22.6055 91.2266 22.3086 91.4375 22.0664C91.6562 21.8242 91.9766 21.7031 92.3984 21.7031C92.8203 21.7031 93.1406 21.8242 93.3594 22.0664C93.5781 22.3086 93.6875 22.6055 93.6875 22.957C93.6875 23.3086 93.5781 23.6016 93.3594 23.8359C93.1406 24.0703 92.8203 24.1875 92.3984 24.1875C91.9766 24.1875 91.6562 24.0703 91.4375 23.8359C91.2266 23.6016 91.1211 23.3086 91.1211 22.957ZM102.031 37.4648C102.805 37.4648 103.48 37.2305 104.059 36.7617C104.637 36.293 104.957 35.707 105.02 35.0039H107.07C107.031 35.7305 106.781 36.4219 106.32 37.0781C105.859 37.7344 105.242 38.2578 104.469 38.6484C103.703 39.0391 102.891 39.2344 102.031 39.2344C100.305 39.2344 98.9297 38.6602 97.9062 37.5117C96.8906 36.3555 96.3828 34.7773 96.3828 32.7773V32.4141C96.3828 31.1797 96.6094 30.082 97.0625 29.1211C97.5156 28.1602 98.1641 27.4141 99.0078 26.8828C99.8594 26.3516 100.863 26.0859 102.02 26.0859C103.441 26.0859 104.621 26.5117 105.559 27.3633C106.504 28.2148 107.008 29.3203 107.07 30.6797H105.02C104.957 29.8594 104.645 29.1875 104.082 28.6641C103.527 28.1328 102.84 27.8672 102.02 27.8672C100.918 27.8672 100.062 28.2656 99.4531 29.0625C98.8516 29.8516 98.5508 30.9961 98.5508 32.4961V32.9062C98.5508 34.3672 98.8516 35.4922 99.4531 36.2812C100.055 37.0703 100.914 37.4648 102.031 37.4648ZM113.047 33.1289L111.688 34.5469V39H109.52V21H111.688V31.8867L112.848 30.4922L116.797 26.3203H119.434L114.5 31.6172L120.008 39H117.465L113.047 33.1289ZM130.566 23.25V26.3203H132.934V27.9961H130.566V35.8594C130.566 36.3672 130.672 36.75 130.883 37.0078C131.094 37.2578 131.453 37.3828 131.961 37.3828C132.211 37.3828 132.555 37.3359 132.992 37.2422V39C132.422 39.1562 131.867 39.2344 131.328 39.2344C130.359 39.2344 129.629 38.9414 129.137 38.3555C128.645 37.7695 128.398 36.9375 128.398 35.8594V27.9961H126.09V26.3203H128.398V23.25H130.566ZM137.645 27.8555C138.605 26.6758 139.855 26.0859 141.395 26.0859C144.074 26.0859 145.426 27.5977 145.449 30.6211V39H143.281V30.6094C143.273 29.6953 143.062 29.0195 142.648 28.582C142.242 28.1445 141.605 27.9258 140.738 27.9258C140.035 27.9258 139.418 28.1133 138.887 28.4883C138.355 28.8633 137.941 29.3555 137.645 29.9648V39H135.477V21H137.645V27.8555ZM153.957 39.2344C152.238 39.2344 150.84 38.6719 149.762 37.5469C148.684 36.4141 148.145 34.9023 148.145 33.0117V32.6133C148.145 31.3555 148.383 30.2344 148.859 29.25C149.344 28.2578 150.016 27.4844 150.875 26.9297C151.742 26.3672 152.68 26.0859 153.688 26.0859C155.336 26.0859 156.617 26.6289 157.531 27.7148C158.445 28.8008 158.902 30.3555 158.902 32.3789V33.2812H150.312C150.344 34.5312 150.707 35.543 151.402 36.3164C152.105 37.082 152.996 37.4648 154.074 37.4648C154.84 37.4648 155.488 37.3086 156.02 36.9961C156.551 36.6836 157.016 36.2695 157.414 35.7539L158.738 36.7852C157.676 38.418 156.082 39.2344 153.957 39.2344ZM153.688 27.8672C152.812 27.8672 152.078 28.1875 151.484 28.8281C150.891 29.4609 150.523 30.3516 150.383 31.5H156.734V31.3359C156.672 30.2344 156.375 29.3828 155.844 28.7812C155.312 28.1719 154.594 27.8672 153.688 27.8672ZM168.992 20.7773L170.234 21.6211C169.508 22.6133 169.133 23.6836 169.109 24.832V26.4258H166.953V25.0664C166.953 24.2695 167.141 23.4805 167.516 22.6992C167.898 21.918 168.391 21.2773 168.992 20.7773ZM172.684 20.7773L173.926 21.6211C173.199 22.6133 172.824 23.6836 172.801 24.832V26.4258H170.645V25.0664C170.645 24.2695 170.832 23.4805 171.207 22.6992C171.59 21.918 172.082 21.2773 172.684 20.7773ZM184.215 34.5469H177.066L175.461 39H173.141L179.656 21.9375H181.625L188.152 39H185.844L184.215 34.5469ZM177.746 32.6953H183.547L180.641 24.7148L177.746 32.6953ZM189.582 32.5547C189.582 30.6094 190.043 29.0469 190.965 27.8672C191.887 26.6797 193.094 26.0859 194.586 26.0859C196.07 26.0859 197.246 26.5938 198.113 27.6094V21H200.281V39H198.289L198.184 37.6406C197.316 38.7031 196.109 39.2344 194.562 39.2344C193.094 39.2344 191.895 38.6328 190.965 37.4297C190.043 36.2266 189.582 34.6562 189.582 32.7188V32.5547ZM191.75 32.8008C191.75 34.2383 192.047 35.3633 192.641 36.1758C193.234 36.9883 194.055 37.3945 195.102 37.3945C196.477 37.3945 197.48 36.7773 198.113 35.543V29.7188C197.465 28.5234 196.469 27.9258 195.125 27.9258C194.062 27.9258 193.234 28.3359 192.641 29.1562C192.047 29.9766 191.75 31.1914 191.75 32.8008ZM203.129 32.5547C203.129 30.6094 203.59 29.0469 204.512 27.8672C205.434 26.6797 206.641 26.0859 208.133 26.0859C209.617 26.0859 210.793 26.5938 211.66 27.6094V21H213.828V39H211.836L211.73 37.6406C210.863 38.7031 209.656 39.2344 208.109 39.2344C206.641 39.2344 205.441 38.6328 204.512 37.4297C203.59 36.2266 203.129 34.6562 203.129 32.7188V32.5547ZM205.297 32.8008C205.297 34.2383 205.594 35.3633 206.188 36.1758C206.781 36.9883 207.602 37.3945 208.648 37.3945C210.023 37.3945 211.027 36.7773 211.66 35.543V29.7188C211.012 28.5234 210.016 27.9258 208.672 27.9258C207.609 27.9258 206.781 28.3359 206.188 29.1562C205.594 29.9766 205.297 31.1914 205.297 32.8008ZM233.141 31.1133H225.746V37.1602H234.336V39H223.496V21.9375H234.219V23.7891H225.746V29.2734H233.141V31.1133ZM236.035 32.5547C236.035 30.5625 236.492 28.9883 237.406 27.832C238.32 26.668 239.547 26.0859 241.086 26.0859C242.586 26.0859 243.77 26.5898 244.637 27.5977L244.73 26.3203H246.723V43.875H244.555V37.8281C243.68 38.7656 242.516 39.2344 241.062 39.2344C239.531 39.2344 238.309 38.6406 237.395 37.4531C236.488 36.2578 236.035 34.6758 236.035 32.707V32.5547ZM238.203 32.8008C238.203 34.2539 238.508 35.3945 239.117 36.2227C239.734 37.0508 240.562 37.4648 241.602 37.4648C242.891 37.4648 243.875 36.8945 244.555 35.7539V29.543C243.867 28.4258 242.891 27.8672 241.625 27.8672C240.578 27.8672 239.746 28.2852 239.129 29.1211C238.512 29.9492 238.203 31.1758 238.203 32.8008ZM258.031 37.7461C257.188 38.7383 255.949 39.2344 254.316 39.2344C252.965 39.2344 251.934 38.8438 251.223 38.0625C250.52 37.2734 250.164 36.1094 250.156 34.5703V26.3203H252.324V34.5117C252.324 36.4336 253.105 37.3945 254.668 37.3945C256.324 37.3945 257.426 36.7773 257.973 35.543V26.3203H260.141V39H258.078L258.031 37.7461ZM265.801 39H263.633V26.3203H265.801V39ZM263.457 22.957C263.457 22.6055 263.562 22.3086 263.773 22.0664C263.992 21.8242 264.312 21.7031 264.734 21.7031C265.156 21.7031 265.477 21.8242 265.695 22.0664C265.914 22.3086 266.023 22.6055 266.023 22.957C266.023 23.3086 265.914 23.6016 265.695 23.8359C265.477 24.0703 265.156 24.1875 264.734 24.1875C264.312 24.1875 263.992 24.0703 263.773 23.8359C263.562 23.6016 263.457 23.3086 263.457 22.957ZM279.992 32.8008C279.992 34.7305 279.551 36.2852 278.668 37.4648C277.785 38.6445 276.59 39.2344 275.082 39.2344C273.543 39.2344 272.332 38.7461 271.449 37.7695V43.875H269.281V26.3203H271.262L271.367 27.7266C272.25 26.6328 273.477 26.0859 275.047 26.0859C276.57 26.0859 277.773 26.6602 278.656 27.8086C279.547 28.957 279.992 30.5547 279.992 32.6016V32.8008ZM277.824 32.5547C277.824 31.125 277.52 29.9961 276.91 29.168C276.301 28.3398 275.465 27.9258 274.402 27.9258C273.09 27.9258 272.105 28.5078 271.449 29.6719V35.7305C272.098 36.8867 273.09 37.4648 274.426 37.4648C275.465 37.4648 276.289 37.0547 276.898 36.2344C277.516 35.4062 277.824 34.1797 277.824 32.5547ZM284.797 26.3203L284.855 27.7266C285.785 26.6328 287.039 26.0859 288.617 26.0859C290.391 26.0859 291.598 26.7656 292.238 28.125C292.66 27.5156 293.207 27.0234 293.879 26.6484C294.559 26.2734 295.359 26.0859 296.281 26.0859C299.062 26.0859 300.477 27.5586 300.523 30.5039V39H298.355V30.6328C298.355 29.7266 298.148 29.0508 297.734 28.6055C297.32 28.1523 296.625 27.9258 295.648 27.9258C294.844 27.9258 294.176 28.168 293.645 28.6523C293.113 29.1289 292.805 29.7734 292.719 30.5859V39H290.539V30.6914C290.539 28.8477 289.637 27.9258 287.832 27.9258C286.41 27.9258 285.438 28.5312 284.914 29.7422V39H282.746V26.3203H284.797ZM309.066 39.2344C307.348 39.2344 305.949 38.6719 304.871 37.5469C303.793 36.4141 303.254 34.9023 303.254 33.0117V32.6133C303.254 31.3555 303.492 30.2344 303.969 29.25C304.453 28.2578 305.125 27.4844 305.984 26.9297C306.852 26.3672 307.789 26.0859 308.797 26.0859C310.445 26.0859 311.727 26.6289 312.641 27.7148C313.555 28.8008 314.012 30.3555 314.012 32.3789V33.2812H305.422C305.453 34.5312 305.816 35.543 306.512 36.3164C307.215 37.082 308.105 37.4648 309.184 37.4648C309.949 37.4648 310.598 37.3086 311.129 36.9961C311.66 36.6836 312.125 36.2695 312.523 35.7539L313.848 36.7852C312.785 38.418 311.191 39.2344 309.066 39.2344ZM308.797 27.8672C307.922 27.8672 307.188 28.1875 306.594 28.8281C306 29.4609 305.633 30.3516 305.492 31.5H311.844V31.3359C311.781 30.2344 311.484 29.3828 310.953 28.7812C310.422 28.1719 309.703 27.8672 308.797 27.8672ZM318.582 26.3203L318.652 27.9141C319.621 26.6953 320.887 26.0859 322.449 26.0859C325.129 26.0859 326.48 27.5977 326.504 30.6211V39H324.336V30.6094C324.328 29.6953 324.117 29.0195 323.703 28.582C323.297 28.1445 322.66 27.9258 321.793 27.9258C321.09 27.9258 320.473 28.1133 319.941 28.4883C319.41 28.8633 318.996 29.3555 318.699 29.9648V39H316.531V26.3203H318.582ZM332.715 23.25V26.3203H335.082V27.9961H332.715V35.8594C332.715 36.3672 332.82 36.75 333.031 37.0078C333.242 37.2578 333.602 37.3828 334.109 37.3828C334.359 37.3828 334.703 37.3359 335.141 37.2422V39C334.57 39.1562 334.016 39.2344 333.477 39.2344C332.508 39.2344 331.777 38.9414 331.285 38.3555C330.793 37.7695 330.547 36.9375 330.547 35.8594V27.9961H328.238V26.3203H330.547V23.25H332.715ZM337.918 26.7422L336.688 25.8984C337.414 24.8828 337.789 23.8125 337.812 22.6875V21H339.957V22.5234C339.949 23.3047 339.754 24.0859 339.371 24.8672C338.996 25.6406 338.512 26.2656 337.918 26.7422ZM341.516 26.7422L340.285 25.8984C341.012 24.8828 341.387 23.8125 341.41 22.6875V21H343.555V22.5234C343.547 23.3047 343.352 24.0859 342.969 24.8672C342.594 25.6406 342.109 26.2656 341.516 26.7422ZM362.891 32.8008C362.891 34.7383 362.445 36.2969 361.555 37.4766C360.664 38.6484 359.469 39.2344 357.969 39.2344C356.367 39.2344 355.129 38.668 354.254 37.5352L354.148 39H352.156V21H354.324V27.7148C355.199 26.6289 356.406 26.0859 357.945 26.0859C359.484 26.0859 360.691 26.668 361.566 27.832C362.449 28.9961 362.891 30.5898 362.891 32.6133V32.8008ZM360.723 32.5547C360.723 31.0781 360.438 29.9375 359.867 29.1328C359.297 28.3281 358.477 27.9258 357.406 27.9258C355.977 27.9258 354.949 28.5898 354.324 29.918V35.4023C354.988 36.7305 356.023 37.3945 357.43 37.3945C358.469 37.3945 359.277 36.9922 359.855 36.1875C360.434 35.3828 360.723 34.1719 360.723 32.5547ZM373.461 37.7461C372.617 38.7383 371.379 39.2344 369.746 39.2344C368.395 39.2344 367.363 38.8438 366.652 38.0625C365.949 37.2734 365.594 36.1094 365.586 34.5703V26.3203H367.754V34.5117C367.754 36.4336 368.535 37.3945 370.098 37.3945C371.754 37.3945 372.855 36.7773 373.402 35.543V26.3203H375.57V39H373.508L373.461 37.7461ZM381.816 23.25V26.3203H384.184V27.9961H381.816V35.8594C381.816 36.3672 381.922 36.75 382.133 37.0078C382.344 37.2578 382.703 37.3828 383.211 37.3828C383.461 37.3828 383.805 37.3359 384.242 37.2422V39C383.672 39.1562 383.117 39.2344 382.578 39.2344C381.609 39.2344 380.879 38.9414 380.387 38.3555C379.895 37.7695 379.648 36.9375 379.648 35.8594V27.9961H377.34V26.3203H379.648V23.25H381.816ZM389.668 23.25V26.3203H392.035V27.9961H389.668V35.8594C389.668 36.3672 389.773 36.75 389.984 37.0078C390.195 37.2578 390.555 37.3828 391.062 37.3828C391.312 37.3828 391.656 37.3359 392.094 37.2422V39C391.523 39.1562 390.969 39.2344 390.43 39.2344C389.461 39.2344 388.73 38.9414 388.238 38.3555C387.746 37.7695 387.5 36.9375 387.5 35.8594V27.9961H385.191V26.3203H387.5V23.25H389.668ZM393.77 32.543C393.77 31.3008 394.012 30.1836 394.496 29.1914C394.988 28.1992 395.668 27.4336 396.535 26.8945C397.41 26.3555 398.406 26.0859 399.523 26.0859C401.25 26.0859 402.645 26.6836 403.707 27.8789C404.777 29.0742 405.312 30.6641 405.312 32.6484V32.8008C405.312 34.0352 405.074 35.1445 404.598 36.1289C404.129 37.1055 403.453 37.8672 402.57 38.4141C401.695 38.9609 400.688 39.2344 399.547 39.2344C397.828 39.2344 396.434 38.6367 395.363 37.4414C394.301 36.2461 393.77 34.6641 393.77 32.6953V32.543ZM395.949 32.8008C395.949 34.207 396.273 35.3359 396.922 36.1875C397.578 37.0391 398.453 37.4648 399.547 37.4648C400.648 37.4648 401.523 37.0352 402.172 36.1758C402.82 35.3086 403.145 34.0977 403.145 32.543C403.145 31.1523 402.812 30.0273 402.148 29.168C401.492 28.3008 400.617 27.8672 399.523 27.8672C398.453 27.8672 397.59 28.293 396.934 29.1445C396.277 29.9961 395.949 31.2148 395.949 32.8008ZM410.082 26.3203L410.152 27.9141C411.121 26.6953 412.387 26.0859 413.949 26.0859C416.629 26.0859 417.98 27.5977 418.004 30.6211V39H415.836V30.6094C415.828 29.6953 415.617 29.0195 415.203 28.582C414.797 28.1445 414.16 27.9258 413.293 27.9258C412.59 27.9258 411.973 28.1133 411.441 28.4883C410.91 28.8633 410.496 29.3555 410.199 29.9648V39H408.031V26.3203H410.082ZM430.168 23.25V26.3203H432.535V27.9961H430.168V35.8594C430.168 36.3672 430.273 36.75 430.484 37.0078C430.695 37.2578 431.055 37.3828 431.562 37.3828C431.812 37.3828 432.156 37.3359 432.594 37.2422V39C432.023 39.1562 431.469 39.2344 430.93 39.2344C429.961 39.2344 429.23 38.9414 428.738 38.3555C428.246 37.7695 428 36.9375 428 35.8594V27.9961H425.691V26.3203H428V23.25H430.168ZM434.27 32.543C434.27 31.3008 434.512 30.1836 434.996 29.1914C435.488 28.1992 436.168 27.4336 437.035 26.8945C437.91 26.3555 438.906 26.0859 440.023 26.0859C441.75 26.0859 443.145 26.6836 444.207 27.8789C445.277 29.0742 445.812 30.6641 445.812 32.6484V32.8008C445.812 34.0352 445.574 35.1445 445.098 36.1289C444.629 37.1055 443.953 37.8672 443.07 38.4141C442.195 38.9609 441.188 39.2344 440.047 39.2344C438.328 39.2344 436.934 38.6367 435.863 37.4414C434.801 36.2461 434.27 34.6641 434.27 32.6953V32.543ZM436.449 32.8008C436.449 34.207 436.773 35.3359 437.422 36.1875C438.078 37.0391 438.953 37.4648 440.047 37.4648C441.148 37.4648 442.023 37.0352 442.672 36.1758C443.32 35.3086 443.645 34.0977 443.645 32.543C443.645 31.1523 443.312 30.0273 442.648 29.168C441.992 28.3008 441.117 27.8672 440.023 27.8672C438.953 27.8672 438.09 28.293 437.434 29.1445C436.777 29.9961 436.449 31.2148 436.449 32.8008ZM461.867 35.6367C461.867 35.0508 461.645 34.5977 461.199 34.2773C460.762 33.9492 459.992 33.668 458.891 33.4336C457.797 33.1992 456.926 32.918 456.277 32.5898C455.637 32.2617 455.16 31.8711 454.848 31.418C454.543 30.9648 454.391 30.4258 454.391 29.8008C454.391 28.7617 454.828 27.8828 455.703 27.1641C456.586 26.4453 457.711 26.0859 459.078 26.0859C460.516 26.0859 461.68 26.457 462.57 27.1992C463.469 27.9414 463.918 28.8906 463.918 30.0469H461.738C461.738 29.4531 461.484 28.9414 460.977 28.5117C460.477 28.082 459.844 27.8672 459.078 27.8672C458.289 27.8672 457.672 28.0391 457.227 28.3828C456.781 28.7266 456.559 29.1758 456.559 29.7305C456.559 30.2539 456.766 30.6484 457.18 30.9141C457.594 31.1797 458.34 31.4336 459.418 31.6758C460.504 31.918 461.383 32.207 462.055 32.543C462.727 32.8789 463.223 33.2852 463.543 33.7617C463.871 34.2305 464.035 34.8047 464.035 35.4844C464.035 36.6172 463.582 37.5273 462.676 38.2148C461.77 38.8945 460.594 39.2344 459.148 39.2344C458.133 39.2344 457.234 39.0547 456.453 38.6953C455.672 38.3359 455.059 37.8359 454.613 37.1953C454.176 36.5469 453.957 35.8477 453.957 35.0977H456.125C456.164 35.8242 456.453 36.4023 456.992 36.832C457.539 37.2539 458.258 37.4648 459.148 37.4648C459.969 37.4648 460.625 37.3008 461.117 36.9727C461.617 36.6367 461.867 36.1914 461.867 35.6367ZM469.801 23.25V26.3203H472.168V27.9961H469.801V35.8594C469.801 36.3672 469.906 36.75 470.117 37.0078C470.328 37.2578 470.688 37.3828 471.195 37.3828C471.445 37.3828 471.789 37.3359 472.227 37.2422V39C471.656 39.1562 471.102 39.2344 470.562 39.2344C469.594 39.2344 468.863 38.9414 468.371 38.3555C467.879 37.7695 467.633 36.9375 467.633 35.8594V27.9961H465.324V26.3203H467.633V23.25H469.801ZM482.539 39C482.414 38.75 482.312 38.3047 482.234 37.6641C481.227 38.7109 480.023 39.2344 478.625 39.2344C477.375 39.2344 476.348 38.8828 475.543 38.1797C474.746 37.4688 474.348 36.5703 474.348 35.4844C474.348 34.1641 474.848 33.1406 475.848 32.4141C476.855 31.6797 478.27 31.3125 480.09 31.3125H482.199V30.3164C482.199 29.5586 481.973 28.957 481.52 28.5117C481.066 28.0586 480.398 27.832 479.516 27.832C478.742 27.832 478.094 28.0273 477.57 28.418C477.047 28.8086 476.785 29.2812 476.785 29.8359H474.605C474.605 29.2031 474.828 28.5938 475.273 28.0078C475.727 27.4141 476.336 26.9453 477.102 26.6016C477.875 26.2578 478.723 26.0859 479.645 26.0859C481.105 26.0859 482.25 26.4531 483.078 27.1875C483.906 27.9141 484.336 28.918 484.367 30.1992V36.0352C484.367 37.1992 484.516 38.125 484.812 38.8125V39H482.539ZM478.941 37.3477C479.621 37.3477 480.266 37.1719 480.875 36.8203C481.484 36.4688 481.926 36.0117 482.199 35.4492V32.8477H480.5C477.844 32.8477 476.516 33.625 476.516 35.1797C476.516 35.8594 476.742 36.3906 477.195 36.7734C477.648 37.1562 478.23 37.3477 478.941 37.3477ZM493.895 28.2656C493.566 28.2109 493.211 28.1836 492.828 28.1836C491.406 28.1836 490.441 28.7891 489.934 30V39H487.766V26.3203H489.875L489.91 27.7852C490.621 26.6523 491.629 26.0859 492.934 26.0859C493.355 26.0859 493.676 26.1406 493.895 26.25V28.2656ZM499.426 23.25V26.3203H501.793V27.9961H499.426V35.8594C499.426 36.3672 499.531 36.75 499.742 37.0078C499.953 37.2578 500.312 37.3828 500.82 37.3828C501.07 37.3828 501.414 37.3359 501.852 37.2422V39C501.281 39.1562 500.727 39.2344 500.188 39.2344C499.219 39.2344 498.488 38.9414 497.996 38.3555C497.504 37.7695 497.258 36.9375 497.258 35.8594V27.9961H494.949V26.3203H497.258V23.25H499.426ZM518.117 39C517.992 38.75 517.891 38.3047 517.812 37.6641C516.805 38.7109 515.602 39.2344 514.203 39.2344C512.953 39.2344 511.926 38.8828 511.121 38.1797C510.324 37.4688 509.926 36.5703 509.926 35.4844C509.926 34.1641 510.426 33.1406 511.426 32.4141C512.434 31.6797 513.848 31.3125 515.668 31.3125H517.777V30.3164C517.777 29.5586 517.551 28.957 517.098 28.5117C516.645 28.0586 515.977 27.832 515.094 27.832C514.32 27.832 513.672 28.0273 513.148 28.418C512.625 28.8086 512.363 29.2812 512.363 29.8359H510.184C510.184 29.2031 510.406 28.5938 510.852 28.0078C511.305 27.4141 511.914 26.9453 512.68 26.6016C513.453 26.2578 514.301 26.0859 515.223 26.0859C516.684 26.0859 517.828 26.4531 518.656 27.1875C519.484 27.9141 519.914 28.918 519.945 30.1992V36.0352C519.945 37.1992 520.094 38.125 520.391 38.8125V39H518.117ZM514.52 37.3477C515.199 37.3477 515.844 37.1719 516.453 36.8203C517.062 36.4688 517.504 36.0117 517.777 35.4492V32.8477H516.078C513.422 32.8477 512.094 33.625 512.094 35.1797C512.094 35.8594 512.32 36.3906 512.773 36.7734C513.227 37.1562 513.809 37.3477 514.52 37.3477ZM522.816 32.5547C522.816 30.6094 523.277 29.0469 524.199 27.8672C525.121 26.6797 526.328 26.0859 527.82 26.0859C529.305 26.0859 530.48 26.5938 531.348 27.6094V21H533.516V39H531.523L531.418 37.6406C530.551 38.7031 529.344 39.2344 527.797 39.2344C526.328 39.2344 525.129 38.6328 524.199 37.4297C523.277 36.2266 522.816 34.6562 522.816 32.7188V32.5547ZM524.984 32.8008C524.984 34.2383 525.281 35.3633 525.875 36.1758C526.469 36.9883 527.289 37.3945 528.336 37.3945C529.711 37.3945 530.715 36.7773 531.348 35.543V29.7188C530.699 28.5234 529.703 27.9258 528.359 27.9258C527.297 27.9258 526.469 28.3359 525.875 29.1562C525.281 29.9766 524.984 31.1914 524.984 32.8008ZM536.363 32.5547C536.363 30.6094 536.824 29.0469 537.746 27.8672C538.668 26.6797 539.875 26.0859 541.367 26.0859C542.852 26.0859 544.027 26.5938 544.895 27.6094V21H547.062V39H545.07L544.965 37.6406C544.098 38.7031 542.891 39.2344 541.344 39.2344C539.875 39.2344 538.676 38.6328 537.746 37.4297C536.824 36.2266 536.363 34.6562 536.363 32.7188V32.5547ZM538.531 32.8008C538.531 34.2383 538.828 35.3633 539.422 36.1758C540.016 36.9883 540.836 37.3945 541.883 37.3945C543.258 37.3945 544.262 36.7773 544.895 35.543V29.7188C544.246 28.5234 543.25 27.9258 541.906 27.9258C540.844 27.9258 540.016 28.3359 539.422 29.1562C538.828 29.9766 538.531 31.1914 538.531 32.8008ZM552.793 39H550.625V26.3203H552.793V39ZM550.449 22.957C550.449 22.6055 550.555 22.3086 550.766 22.0664C550.984 21.8242 551.305 21.7031 551.727 21.7031C552.148 21.7031 552.469 21.8242 552.688 22.0664C552.906 22.3086 553.016 22.6055 553.016 22.957C553.016 23.3086 552.906 23.6016 552.688 23.8359C552.469 24.0703 552.148 24.1875 551.727 24.1875C551.305 24.1875 550.984 24.0703 550.766 23.8359C550.555 23.6016 550.449 23.3086 550.449 22.957ZM558.324 26.3203L558.395 27.9141C559.363 26.6953 560.629 26.0859 562.191 26.0859C564.871 26.0859 566.223 27.5977 566.246 30.6211V39H564.078V30.6094C564.07 29.6953 563.859 29.0195 563.445 28.582C563.039 28.1445 562.402 27.9258 561.535 27.9258C560.832 27.9258 560.215 28.1133 559.684 28.4883C559.152 28.8633 558.738 29.3555 558.441 29.9648V39H556.273V26.3203H558.324ZM569 32.5547C569 30.5781 569.457 29.0078 570.371 27.8438C571.285 26.6719 572.496 26.0859 574.004 26.0859C575.551 26.0859 576.758 26.6328 577.625 27.7266L577.73 26.3203H579.711V38.6953C579.711 40.3359 579.223 41.6289 578.246 42.5742C577.277 43.5195 575.973 43.9922 574.332 43.9922C573.418 43.9922 572.523 43.7969 571.648 43.4062C570.773 43.0156 570.105 42.4805 569.645 41.8008L570.77 40.5C571.699 41.6484 572.836 42.2227 574.18 42.2227C575.234 42.2227 576.055 41.9258 576.641 41.332C577.234 40.7383 577.531 39.9023 577.531 38.8242V37.7344C576.664 38.7344 575.48 39.2344 573.98 39.2344C572.496 39.2344 571.293 38.6367 570.371 37.4414C569.457 36.2461 569 34.6172 569 32.5547ZM571.18 32.8008C571.18 34.2305 571.473 35.3555 572.059 36.1758C572.645 36.9883 573.465 37.3945 574.52 37.3945C575.887 37.3945 576.891 36.7734 577.531 35.5312V29.7422C576.867 28.5312 575.871 27.9258 574.543 27.9258C573.488 27.9258 572.664 28.3359 572.07 29.1562C571.477 29.9766 571.18 31.1914 571.18 32.8008ZM74.9023 67.2344C73.1836 67.2344 71.7852 66.6719 70.707 65.5469C69.6289 64.4141 69.0898 62.9023 69.0898 61.0117V60.6133C69.0898 59.3555 69.3281 58.2344 69.8047 57.25C70.2891 56.2578 70.9609 55.4844 71.8203 54.9297C72.6875 54.3672 73.625 54.0859 74.6328 54.0859C76.2812 54.0859 77.5625 54.6289 78.4766 55.7148C79.3906 56.8008 79.8477 58.3555 79.8477 60.3789V61.2812H71.2578C71.2891 62.5312 71.6523 63.543 72.3477 64.3164C73.0508 65.082 73.9414 65.4648 75.0195 65.4648C75.7852 65.4648 76.4336 65.3086 76.9648 64.9961C77.4961 64.6836 77.9609 64.2695 78.3594 63.7539L79.6836 64.7852C78.6211 66.418 77.0273 67.2344 74.9023 67.2344ZM74.6328 55.8672C73.7578 55.8672 73.0234 56.1875 72.4297 56.8281C71.8359 57.4609 71.4688 58.3516 71.3281 59.5H77.6797V59.3359C77.6172 58.2344 77.3203 57.3828 76.7891 56.7812C76.2578 56.1719 75.5391 55.8672 74.6328 55.8672ZM81.8398 60.5547C81.8398 58.5625 82.2969 56.9883 83.2109 55.832C84.125 54.668 85.3516 54.0859 86.8906 54.0859C88.3906 54.0859 89.5742 54.5898 90.4414 55.5977L90.5352 54.3203H92.5273V71.875H90.3594V65.8281C89.4844 66.7656 88.3203 67.2344 86.8672 67.2344C85.3359 67.2344 84.1133 66.6406 83.1992 65.4531C82.293 64.2578 81.8398 62.6758 81.8398 60.707V60.5547ZM84.0078 60.8008C84.0078 62.2539 84.3125 63.3945 84.9219 64.2227C85.5391 65.0508 86.3672 65.4648 87.4062 65.4648C88.6953 65.4648 89.6797 64.8945 90.3594 63.7539V57.543C89.6719 56.4258 88.6953 55.8672 87.4297 55.8672C86.3828 55.8672 85.5508 56.2852 84.9336 57.1211C84.3164 57.9492 84.0078 59.1758 84.0078 60.8008ZM103.836 65.7461C102.992 66.7383 101.754 67.2344 100.121 67.2344C98.7695 67.2344 97.7383 66.8438 97.0273 66.0625C96.3242 65.2734 95.9688 64.1094 95.9609 62.5703V54.3203H98.1289V62.5117C98.1289 64.4336 98.9102 65.3945 100.473 65.3945C102.129 65.3945 103.23 64.7773 103.777 63.543V54.3203H105.945V67H103.883L103.836 65.7461ZM111.605 67H109.438V54.3203H111.605V67ZM109.262 50.957C109.262 50.6055 109.367 50.3086 109.578 50.0664C109.797 49.8242 110.117 49.7031 110.539 49.7031C110.961 49.7031 111.281 49.8242 111.5 50.0664C111.719 50.3086 111.828 50.6055 111.828 50.957C111.828 51.3086 111.719 51.6016 111.5 51.8359C111.281 52.0703 110.961 52.1875 110.539 52.1875C110.117 52.1875 109.797 52.0703 109.578 51.8359C109.367 51.6016 109.262 51.3086 109.262 50.957ZM125.797 60.8008C125.797 62.7305 125.355 64.2852 124.473 65.4648C123.59 66.6445 122.395 67.2344 120.887 67.2344C119.348 67.2344 118.137 66.7461 117.254 65.7695V71.875H115.086V54.3203H117.066L117.172 55.7266C118.055 54.6328 119.281 54.0859 120.852 54.0859C122.375 54.0859 123.578 54.6602 124.461 55.8086C125.352 56.957 125.797 58.5547 125.797 60.6016V60.8008ZM123.629 60.5547C123.629 59.125 123.324 57.9961 122.715 57.168C122.105 56.3398 121.27 55.9258 120.207 55.9258C118.895 55.9258 117.91 56.5078 117.254 57.6719V63.7305C117.902 64.8867 118.895 65.4648 120.23 65.4648C121.27 65.4648 122.094 65.0547 122.703 64.2344C123.32 63.4062 123.629 62.1797 123.629 60.5547ZM130.602 54.3203L130.66 55.7266C131.59 54.6328 132.844 54.0859 134.422 54.0859C136.195 54.0859 137.402 54.7656 138.043 56.125C138.465 55.5156 139.012 55.0234 139.684 54.6484C140.363 54.2734 141.164 54.0859 142.086 54.0859C144.867 54.0859 146.281 55.5586 146.328 58.5039V67H144.16V58.6328C144.16 57.7266 143.953 57.0508 143.539 56.6055C143.125 56.1523 142.43 55.9258 141.453 55.9258C140.648 55.9258 139.98 56.168 139.449 56.6523C138.918 57.1289 138.609 57.7734 138.523 58.5859V67H136.344V58.6914C136.344 56.8477 135.441 55.9258 133.637 55.9258C132.215 55.9258 131.242 56.5312 130.719 57.7422V67H128.551V54.3203H130.602ZM154.871 67.2344C153.152 67.2344 151.754 66.6719 150.676 65.5469C149.598 64.4141 149.059 62.9023 149.059 61.0117V60.6133C149.059 59.3555 149.297 58.2344 149.773 57.25C150.258 56.2578 150.93 55.4844 151.789 54.9297C152.656 54.3672 153.594 54.0859 154.602 54.0859C156.25 54.0859 157.531 54.6289 158.445 55.7148C159.359 56.8008 159.816 58.3555 159.816 60.3789V61.2812H151.227C151.258 62.5312 151.621 63.543 152.316 64.3164C153.02 65.082 153.91 65.4648 154.988 65.4648C155.754 65.4648 156.402 65.3086 156.934 64.9961C157.465 64.6836 157.93 64.2695 158.328 63.7539L159.652 64.7852C158.59 66.418 156.996 67.2344 154.871 67.2344ZM154.602 55.8672C153.727 55.8672 152.992 56.1875 152.398 56.8281C151.805 57.4609 151.438 58.3516 151.297 59.5H157.648V59.3359C157.586 58.2344 157.289 57.3828 156.758 56.7812C156.227 56.1719 155.508 55.8672 154.602 55.8672ZM164.387 54.3203L164.457 55.9141C165.426 54.6953 166.691 54.0859 168.254 54.0859C170.934 54.0859 172.285 55.5977 172.309 58.6211V67H170.141V58.6094C170.133 57.6953 169.922 57.0195 169.508 56.582C169.102 56.1445 168.465 55.9258 167.598 55.9258C166.895 55.9258 166.277 56.1133 165.746 56.4883C165.215 56.8633 164.801 57.3555 164.504 57.9648V67H162.336V54.3203H164.387ZM178.52 51.25V54.3203H180.887V55.9961H178.52V63.8594C178.52 64.3672 178.625 64.75 178.836 65.0078C179.047 65.2578 179.406 65.3828 179.914 65.3828C180.164 65.3828 180.508 65.3359 180.945 65.2422V67C180.375 67.1562 179.82 67.2344 179.281 67.2344C178.312 67.2344 177.582 66.9414 177.09 66.3555C176.598 65.7695 176.352 64.9375 176.352 63.8594V55.9961H174.043V54.3203H176.352V51.25H178.52ZM192.324 51.25V54.3203H194.691V55.9961H192.324V63.8594C192.324 64.3672 192.43 64.75 192.641 65.0078C192.852 65.2578 193.211 65.3828 193.719 65.3828C193.969 65.3828 194.312 65.3359 194.75 65.2422V67C194.18 67.1562 193.625 67.2344 193.086 67.2344C192.117 67.2344 191.387 66.9414 190.895 66.3555C190.402 65.7695 190.156 64.9375 190.156 63.8594V55.9961H187.848V54.3203H190.156V51.25H192.324ZM196.426 60.543C196.426 59.3008 196.668 58.1836 197.152 57.1914C197.645 56.1992 198.324 55.4336 199.191 54.8945C200.066 54.3555 201.062 54.0859 202.18 54.0859C203.906 54.0859 205.301 54.6836 206.363 55.8789C207.434 57.0742 207.969 58.6641 207.969 60.6484V60.8008C207.969 62.0352 207.73 63.1445 207.254 64.1289C206.785 65.1055 206.109 65.8672 205.227 66.4141C204.352 66.9609 203.344 67.2344 202.203 67.2344C200.484 67.2344 199.09 66.6367 198.02 65.4414C196.957 64.2461 196.426 62.6641 196.426 60.6953V60.543ZM198.605 60.8008C198.605 62.207 198.93 63.3359 199.578 64.1875C200.234 65.0391 201.109 65.4648 202.203 65.4648C203.305 65.4648 204.18 65.0352 204.828 64.1758C205.477 63.3086 205.801 62.0977 205.801 60.543C205.801 59.1523 205.469 58.0273 204.805 57.168C204.148 56.3008 203.273 55.8672 202.18 55.8672C201.109 55.8672 200.246 56.293 199.59 57.1445C198.934 57.9961 198.605 59.2148 198.605 60.8008ZM219.582 51.25V54.3203H221.949V55.9961H219.582V63.8594C219.582 64.3672 219.688 64.75 219.898 65.0078C220.109 65.2578 220.469 65.3828 220.977 65.3828C221.227 65.3828 221.57 65.3359 222.008 65.2422V67C221.438 67.1562 220.883 67.2344 220.344 67.2344C219.375 67.2344 218.645 66.9414 218.152 66.3555C217.66 65.7695 217.414 64.9375 217.414 63.8594V55.9961H215.105V54.3203H217.414V51.25H219.582ZM226.66 55.8555C227.621 54.6758 228.871 54.0859 230.41 54.0859C233.09 54.0859 234.441 55.5977 234.465 58.6211V67H232.297V58.6094C232.289 57.6953 232.078 57.0195 231.664 56.582C231.258 56.1445 230.621 55.9258 229.754 55.9258C229.051 55.9258 228.434 56.1133 227.902 56.4883C227.371 56.8633 226.957 57.3555 226.66 57.9648V67H224.492V49H226.66V55.8555ZM240.066 67H237.898V54.3203H240.066V67ZM237.723 50.957C237.723 50.6055 237.828 50.3086 238.039 50.0664C238.258 49.8242 238.578 49.7031 239 49.7031C239.422 49.7031 239.742 49.8242 239.961 50.0664C240.18 50.3086 240.289 50.6055 240.289 50.957C240.289 51.3086 240.18 51.6016 239.961 51.8359C239.742 52.0703 239.422 52.1875 239 52.1875C238.578 52.1875 238.258 52.0703 238.039 51.8359C237.828 51.6016 237.723 51.3086 237.723 50.957ZM250.93 63.6367C250.93 63.0508 250.707 62.5977 250.262 62.2773C249.824 61.9492 249.055 61.668 247.953 61.4336C246.859 61.1992 245.988 60.918 245.34 60.5898C244.699 60.2617 244.223 59.8711 243.91 59.418C243.605 58.9648 243.453 58.4258 243.453 57.8008C243.453 56.7617 243.891 55.8828 244.766 55.1641C245.648 54.4453 246.773 54.0859 248.141 54.0859C249.578 54.0859 250.742 54.457 251.633 55.1992C252.531 55.9414 252.98 56.8906 252.98 58.0469H250.801C250.801 57.4531 250.547 56.9414 250.039 56.5117C249.539 56.082 248.906 55.8672 248.141 55.8672C247.352 55.8672 246.734 56.0391 246.289 56.3828C245.844 56.7266 245.621 57.1758 245.621 57.7305C245.621 58.2539 245.828 58.6484 246.242 58.9141C246.656 59.1797 247.402 59.4336 248.48 59.6758C249.566 59.918 250.445 60.207 251.117 60.543C251.789 60.8789 252.285 61.2852 252.605 61.7617C252.934 62.2305 253.098 62.8047 253.098 63.4844C253.098 64.6172 252.645 65.5273 251.738 66.2148C250.832 66.8945 249.656 67.2344 248.211 67.2344C247.195 67.2344 246.297 67.0547 245.516 66.6953C244.734 66.3359 244.121 65.8359 243.676 65.1953C243.238 64.5469 243.02 63.8477 243.02 63.0977H245.188C245.227 63.8242 245.516 64.4023 246.055 64.832C246.602 65.2539 247.32 65.4648 248.211 65.4648C249.031 65.4648 249.688 65.3008 250.18 64.9727C250.68 64.6367 250.93 64.1914 250.93 63.6367ZM271.637 62.5469H264.488L262.883 67H260.562L267.078 49.9375H269.047L275.574 67H273.266L271.637 62.5469ZM265.168 60.6953H270.969L268.062 52.7148L265.168 60.6953ZM288.242 60.8008C288.242 62.7305 287.801 64.2852 286.918 65.4648C286.035 66.6445 284.84 67.2344 283.332 67.2344C281.793 67.2344 280.582 66.7461 279.699 65.7695V71.875H277.531V54.3203H279.512L279.617 55.7266C280.5 54.6328 281.727 54.0859 283.297 54.0859C284.82 54.0859 286.023 54.6602 286.906 55.8086C287.797 56.957 288.242 58.5547 288.242 60.6016V60.8008ZM286.074 60.5547C286.074 59.125 285.77 57.9961 285.16 57.168C284.551 56.3398 283.715 55.9258 282.652 55.9258C281.34 55.9258 280.355 56.5078 279.699 57.6719V63.7305C280.348 64.8867 281.34 65.4648 282.676 65.4648C283.715 65.4648 284.539 65.0547 285.148 64.2344C285.766 63.4062 286.074 62.1797 286.074 60.5547ZM301.719 60.8008C301.719 62.7305 301.277 64.2852 300.395 65.4648C299.512 66.6445 298.316 67.2344 296.809 67.2344C295.27 67.2344 294.059 66.7461 293.176 65.7695V71.875H291.008V54.3203H292.988L293.094 55.7266C293.977 54.6328 295.203 54.0859 296.773 54.0859C298.297 54.0859 299.5 54.6602 300.383 55.8086C301.273 56.957 301.719 58.5547 301.719 60.6016V60.8008ZM299.551 60.5547C299.551 59.125 299.246 57.9961 298.637 57.168C298.027 56.3398 297.191 55.9258 296.129 55.9258C294.816 55.9258 293.832 56.5078 293.176 57.6719V63.7305C293.824 64.8867 294.816 65.4648 296.152 65.4648C297.191 65.4648 298.016 65.0547 298.625 64.2344C299.242 63.4062 299.551 62.1797 299.551 60.5547ZM306.84 67H304.672V49H306.84V67ZM312.676 67H310.508V54.3203H312.676V67ZM310.332 50.957C310.332 50.6055 310.438 50.3086 310.648 50.0664C310.867 49.8242 311.188 49.7031 311.609 49.7031C312.031 49.7031 312.352 49.8242 312.57 50.0664C312.789 50.3086 312.898 50.6055 312.898 50.957C312.898 51.3086 312.789 51.6016 312.57 51.8359C312.352 52.0703 312.031 52.1875 311.609 52.1875C311.188 52.1875 310.867 52.0703 310.648 51.8359C310.438 51.6016 310.332 51.3086 310.332 50.957ZM321.242 65.4648C322.016 65.4648 322.691 65.2305 323.27 64.7617C323.848 64.293 324.168 63.707 324.23 63.0039H326.281C326.242 63.7305 325.992 64.4219 325.531 65.0781C325.07 65.7344 324.453 66.2578 323.68 66.6484C322.914 67.0391 322.102 67.2344 321.242 67.2344C319.516 67.2344 318.141 66.6602 317.117 65.5117C316.102 64.3555 315.594 62.7773 315.594 60.7773V60.4141C315.594 59.1797 315.82 58.082 316.273 57.1211C316.727 56.1602 317.375 55.4141 318.219 54.8828C319.07 54.3516 320.074 54.0859 321.23 54.0859C322.652 54.0859 323.832 54.5117 324.77 55.3633C325.715 56.2148 326.219 57.3203 326.281 58.6797H324.23C324.168 57.8594 323.855 57.1875 323.293 56.6641C322.738 56.1328 322.051 55.8672 321.23 55.8672C320.129 55.8672 319.273 56.2656 318.664 57.0625C318.062 57.8516 317.762 58.9961 317.762 60.4961V60.9062C317.762 62.3672 318.062 63.4922 318.664 64.2812C319.266 65.0703 320.125 65.4648 321.242 65.4648ZM336.547 67C336.422 66.75 336.32 66.3047 336.242 65.6641C335.234 66.7109 334.031 67.2344 332.633 67.2344C331.383 67.2344 330.355 66.8828 329.551 66.1797C328.754 65.4688 328.355 64.5703 328.355 63.4844C328.355 62.1641 328.855 61.1406 329.855 60.4141C330.863 59.6797 332.277 59.3125 334.098 59.3125H336.207V58.3164C336.207 57.5586 335.98 56.957 335.527 56.5117C335.074 56.0586 334.406 55.832 333.523 55.832C332.75 55.832 332.102 56.0273 331.578 56.418C331.055 56.8086 330.793 57.2812 330.793 57.8359H328.613C328.613 57.2031 328.836 56.5938 329.281 56.0078C329.734 55.4141 330.344 54.9453 331.109 54.6016C331.883 54.2578 332.73 54.0859 333.652 54.0859C335.113 54.0859 336.258 54.4531 337.086 55.1875C337.914 55.9141 338.344 56.918 338.375 58.1992V64.0352C338.375 65.1992 338.523 66.125 338.82 66.8125V67H336.547ZM332.949 65.3477C333.629 65.3477 334.273 65.1719 334.883 64.8203C335.492 64.4688 335.934 64.0117 336.207 63.4492V60.8477H334.508C331.852 60.8477 330.523 61.625 330.523 63.1797C330.523 63.8594 330.75 64.3906 331.203 64.7734C331.656 65.1562 332.238 65.3477 332.949 65.3477ZM344.715 51.25V54.3203H347.082V55.9961H344.715V63.8594C344.715 64.3672 344.82 64.75 345.031 65.0078C345.242 65.2578 345.602 65.3828 346.109 65.3828C346.359 65.3828 346.703 65.3359 347.141 65.2422V67C346.57 67.1562 346.016 67.2344 345.477 67.2344C344.508 67.2344 343.777 66.9414 343.285 66.3555C342.793 65.7695 342.547 64.9375 342.547 63.8594V55.9961H340.238V54.3203H342.547V51.25H344.715ZM351.98 67H349.812V54.3203H351.98V67ZM349.637 50.957C349.637 50.6055 349.742 50.3086 349.953 50.0664C350.172 49.8242 350.492 49.7031 350.914 49.7031C351.336 49.7031 351.656 49.8242 351.875 50.0664C352.094 50.3086 352.203 50.6055 352.203 50.957C352.203 51.3086 352.094 51.6016 351.875 51.8359C351.656 52.0703 351.336 52.1875 350.914 52.1875C350.492 52.1875 350.172 52.0703 349.953 51.8359C349.742 51.6016 349.637 51.3086 349.637 50.957ZM354.887 60.543C354.887 59.3008 355.129 58.1836 355.613 57.1914C356.105 56.1992 356.785 55.4336 357.652 54.8945C358.527 54.3555 359.523 54.0859 360.641 54.0859C362.367 54.0859 363.762 54.6836 364.824 55.8789C365.895 57.0742 366.43 58.6641 366.43 60.6484V60.8008C366.43 62.0352 366.191 63.1445 365.715 64.1289C365.246 65.1055 364.57 65.8672 363.688 66.4141C362.812 66.9609 361.805 67.2344 360.664 67.2344C358.945 67.2344 357.551 66.6367 356.48 65.4414C355.418 64.2461 354.887 62.6641 354.887 60.6953V60.543ZM357.066 60.8008C357.066 62.207 357.391 63.3359 358.039 64.1875C358.695 65.0391 359.57 65.4648 360.664 65.4648C361.766 65.4648 362.641 65.0352 363.289 64.1758C363.938 63.3086 364.262 62.0977 364.262 60.543C364.262 59.1523 363.93 58.0273 363.266 57.168C362.609 56.3008 361.734 55.8672 360.641 55.8672C359.57 55.8672 358.707 56.293 358.051 57.1445C357.395 57.9961 357.066 59.2148 357.066 60.8008ZM371.199 54.3203L371.27 55.9141C372.238 54.6953 373.504 54.0859 375.066 54.0859C377.746 54.0859 379.098 55.5977 379.121 58.6211V67H376.953V58.6094C376.945 57.6953 376.734 57.0195 376.32 56.582C375.914 56.1445 375.277 55.9258 374.41 55.9258C373.707 55.9258 373.09 56.1133 372.559 56.4883C372.027 56.8633 371.613 57.3555 371.316 57.9648V67H369.148V54.3203H371.199Z" fill="black"/>
</svg>
