<svg width="22" height="26" viewBox="0 0 22 26" fill="none" xmlns="http://www.w3.org/2000/svg">
<path d="M20.8395 5.46314L18.2314 2.85507L15.969 0.592172L15.6238 0.247C15.4669 0.0901034 15.2499 0 15.028 0H2.01817C1.48651 0 0.914062 0.410621 0.914062 1.31166V17.4828V24.8959V25.1034C0.914062 25.4787 1.29151 25.8444 1.73799 25.9597C1.76041 25.9655 1.78192 25.974 1.80524 25.9785C1.87517 25.9924 1.94644 26 2.01817 26H19.9824C20.0541 26 20.1254 25.9924 20.1953 25.9785C20.2186 25.974 20.2406 25.9655 20.2634 25.9592C20.7095 25.844 21.0865 25.4787 21.0865 25.1034V24.8959V17.4828V6.266C21.0865 5.92217 21.0448 5.668 20.8395 5.46314ZM19.4884 5.37931H15.7072V1.5981L17.6114 3.50283L19.4884 5.37931ZM2.01817 0.896552H14.8366C14.8218 0.953034 14.8106 1.01131 14.8106 1.07183V6.27586H20.0142C20.0747 6.27586 20.133 6.26466 20.1895 6.24986C20.1895 6.25659 20.1899 6.25928 20.1899 6.266V11.956L16.4643 8.41638C16.3769 8.33345 16.2648 8.28907 16.1393 8.29355C16.0187 8.29803 15.9058 8.35048 15.8242 8.43924L11.4333 13.2479L9.30713 11.1217C9.14172 10.9563 8.87768 10.946 8.69972 11.0971L1.81061 16.961V1.31166C1.81061 1.21438 1.82541 0.896552 2.01817 0.896552ZM2.01817 25.1034C1.98634 25.1034 1.95765 25.0918 1.92941 25.0815C1.85948 25.0483 1.81061 24.9784 1.81061 24.8959V18.3793H20.1899V24.8959C20.1899 24.9784 20.1406 25.0483 20.0711 25.0815C20.0429 25.0922 20.0142 25.1034 19.9824 25.1034H2.01817ZM2.58075 17.4828L8.96644 12.0479L13.5895 16.6714C13.7648 16.8467 14.0481 16.8467 14.2234 16.6714C14.3987 16.4961 14.3987 16.2128 14.2234 16.0375L12.0685 13.8827L16.1783 9.38152L20.1899 13.1923V17.4828H2.58075Z" fill="black"/>
<path d="M6.6765 23.0548C6.66798 23.2548 6.59985 23.3973 6.47119 23.4807C6.34254 23.5641 6.16995 23.6062 5.95343 23.6062C5.86781 23.6062 5.77592 23.5963 5.67774 23.5757C5.57957 23.5551 5.48543 23.5318 5.39578 23.5053C5.30567 23.4784 5.22319 23.4502 5.14743 23.4197C5.07167 23.3892 5.0134 23.3592 4.9726 23.331L4.66016 23.8272C4.74174 23.8886 4.84171 23.9438 4.9605 23.9926C5.07885 24.0415 5.20257 24.0854 5.33123 24.1244C5.45988 24.1634 5.5845 24.1917 5.70509 24.21C5.82567 24.2284 5.93057 24.2378 6.02067 24.2378C6.20043 24.2378 6.37526 24.2203 6.54471 24.1858C6.71416 24.1513 6.86433 24.0899 6.99523 24.002C7.12612 23.9142 7.23012 23.7976 7.30767 23.6528C7.38523 23.508 7.42423 23.3287 7.42423 23.1167V19.5986H6.6765V23.0548Z" fill="black"/>
<path d="M10.896 20.0577C10.7467 19.9353 10.5782 19.8429 10.3903 19.782C10.2025 19.7206 10.0124 19.6901 9.82059 19.6901H8.52148V24.2069H9.25711V22.5765H9.80266C10.0393 22.5765 10.2563 22.542 10.4522 22.4725C10.6481 22.403 10.8158 22.3049 10.9547 22.1784C11.0937 22.052 11.2017 21.8956 11.2797 21.7096C11.3573 21.5235 11.3963 21.3164 11.3963 21.0873C11.3963 20.8708 11.3501 20.6758 11.2582 20.5019C11.1663 20.328 11.0448 20.1805 10.896 20.0577ZM10.6172 21.55C10.5719 21.6746 10.5132 21.7714 10.4397 21.8409C10.3661 21.9104 10.2854 21.9606 10.1976 21.9911C10.1097 22.0216 10.0205 22.0372 9.93086 22.0372H9.25666V20.2477H9.80804C9.99586 20.2477 10.1469 20.2773 10.2617 20.3365C10.376 20.3957 10.4648 20.4692 10.5284 20.557C10.5916 20.6449 10.6333 20.7368 10.6539 20.8327C10.6741 20.9287 10.6844 21.0134 10.6844 21.0869C10.6844 21.2711 10.662 21.4253 10.6172 21.55Z" fill="black"/>
<path d="M14.0314 22.3806H14.7975V23.4959C14.7648 23.5412 14.7137 23.5757 14.6442 23.5999C14.5747 23.6246 14.5021 23.6439 14.4268 23.6582C14.351 23.6726 14.2757 23.6829 14.1999 23.6887C14.1242 23.695 14.0641 23.6981 14.0193 23.6981C13.8723 23.6981 13.7319 23.6636 13.5993 23.5941C13.4666 23.5246 13.3478 23.4184 13.2438 23.2754C13.1398 23.1324 13.0577 22.9486 12.9986 22.724C12.9394 22.4994 12.9076 22.2336 12.9035 21.9274C12.9076 21.6127 12.9403 21.3473 13.0017 21.1308C13.0631 20.9143 13.1478 20.7377 13.2559 20.6005C13.3639 20.4633 13.4867 20.367 13.6235 20.3096C13.7602 20.2522 13.9041 20.224 14.0556 20.224C14.1905 20.224 14.321 20.2509 14.4478 20.3038C14.5742 20.3567 14.6868 20.4427 14.7849 20.5611L15.2937 20.1074C15.1261 19.9442 14.936 19.8214 14.724 19.7398C14.5115 19.6578 14.2829 19.6174 14.0377 19.6174C13.7718 19.6174 13.5248 19.6672 13.2962 19.7676C13.0671 19.868 12.8681 20.0137 12.6987 20.206C12.5292 20.3983 12.3961 20.6382 12.3001 20.926C12.2042 21.2142 12.1562 21.5482 12.1562 21.9279C12.1562 22.3076 12.2042 22.6429 12.3001 22.9329C12.3961 23.2229 12.5288 23.4641 12.6987 23.656C12.8681 23.8483 13.0662 23.9931 13.2931 24.0912C13.5199 24.1894 13.7682 24.2383 14.0377 24.2383C14.1726 24.2383 14.3084 24.2284 14.4451 24.2078C14.5819 24.1872 14.715 24.1527 14.8437 24.1038C14.9723 24.0549 15.0951 23.9926 15.2112 23.9169C15.3274 23.8411 15.4327 23.7443 15.5268 23.6259V21.8794H14.0314V22.3806Z" fill="black"/>
<path d="M6.54918 10.5963C7.92584 10.5963 9.04563 9.47655 9.04563 8.0999C9.04563 6.72324 7.92584 5.60345 6.54918 5.60345C5.17253 5.60345 4.05273 6.72324 4.05273 8.0999C4.05273 9.47655 5.17253 10.5963 6.54918 10.5963ZM6.54918 6.5C7.43139 6.5 8.14908 7.21769 8.14908 8.0999C8.14908 8.9821 7.43139 9.69979 6.54918 9.69979C5.66698 9.69979 4.94929 8.9821 4.94929 8.0999C4.94929 7.21769 5.66698 6.5 6.54918 6.5Z" fill="black"/>
</svg>
