<svg width="30" height="37" viewBox="0 0 30 37" fill="none" xmlns="http://www.w3.org/2000/svg">
<path fill-rule="evenodd" clip-rule="evenodd" d="M25.5 15.377C25.5 8.72927 22.1424 4.11535 17.7981 2.7302C17.6408 2.28581 17.3922 1.87268 17.0542 1.52603C15.8996 0.341584 14.1004 0.341584 12.9458 1.52603C12.6086 1.87192 12.3603 2.28399 12.203 2.72727C7.85303 4.10637 4.5 8.71021 4.5 15.377C4.5 19.6905 3.70347 22.1075 2.22894 23.8591C1.98241 24.152 1.31447 24.8228 0.862008 25.2773L0.861995 25.2773L0.861825 25.2775C0.647837 25.4924 0.482078 25.6589 0.431947 25.714L0 26.1922V31.777H9.13196C9.44075 33.5163 10.3051 34.6799 11.8683 35.7214C13.7912 37.0026 16.2088 37.0026 18.1317 35.7214C19.5112 34.8023 20.4362 33.3897 20.8115 31.777H30V26.1922L29.5681 25.714C29.5226 25.6636 29.3635 25.5034 29.1555 25.294L29.1555 25.2939C28.7044 24.8396 28.0234 24.1537 27.7731 23.8552C26.2975 22.0954 25.5 19.6753 25.5 15.377ZM17.6051 31.777H12.2679C12.4799 32.2074 12.8411 32.5324 13.431 32.9255C14.3944 33.5673 15.6056 33.5673 16.569 32.9255C17.0151 32.6283 17.3637 32.235 17.6051 31.777ZM25.5603 26.0669C25.8759 26.4433 26.5524 27.1314 27 27.5809V28.5016H3V27.5817C3.44411 27.1374 4.12265 26.4498 4.43773 26.0756C6.44133 23.6955 7.5 20.483 7.5 15.377C7.5 9.18629 10.9992 5.57106 15 5.57106C18.9896 5.57106 22.5 9.20495 22.5 15.377C22.5 20.4666 23.559 23.6801 25.5603 26.0669Z" fill="#1F5FBE"/>
</svg>
