<svg width="26" height="26" viewBox="0 0 26 26" fill="none" xmlns="http://www.w3.org/2000/svg">
<path d="M22.8399 5.46314L22.4943 5.11752L17.969 0.592172L17.6233 0.246552C17.4669 0.0901034 17.2499 0 17.028 0H4.01817C3.48651 0 2.91406 0.410621 2.91406 1.31166V17.4828V24.8959V25.1034C2.91406 25.4787 3.29151 25.8444 3.73799 25.9597C3.76041 25.9655 3.78192 25.974 3.80523 25.9785C3.87517 25.9924 3.94644 26 4.01817 26H21.9824C22.0541 26 22.1254 25.9924 22.1953 25.9785C22.2186 25.974 22.2401 25.9655 22.2625 25.9597C22.709 25.8444 23.0865 25.4787 23.0865 25.1034V24.8959V17.4828V6.266C23.0865 5.92217 23.0452 5.66845 22.8399 5.46314ZM21.4884 5.37931H17.7072V1.5981L21.4884 5.37931ZM4.01817 25.1034C3.98634 25.1034 3.95765 25.0918 3.92941 25.0815C3.85948 25.0483 3.81061 24.9784 3.81061 24.8959V18.3793H22.1899V24.8959C22.1899 24.9784 22.1411 25.0479 22.0711 25.0815C22.0429 25.0918 22.0142 25.1034 21.9824 25.1034H4.01817ZM3.81061 17.4828V1.31166C3.81061 1.21438 3.82541 0.896552 4.01817 0.896552H16.8366C16.8218 0.953034 16.8106 1.01131 16.8106 1.07183V6.27586H22.0146C22.0752 6.27586 22.133 6.26466 22.1895 6.24986C22.1895 6.25659 22.1899 6.25928 22.1899 6.266V17.4828H3.81061Z" fill="black"/>
<path d="M9.88038 20.0577C9.7311 19.9353 9.56255 19.8429 9.37472 19.782C9.18689 19.7206 8.99682 19.6901 8.80496 19.6901H7.50586V24.2069H8.24148V22.5765H8.78703C9.02372 22.5765 9.24069 22.542 9.43658 22.4725C9.63248 22.403 9.80014 22.3049 9.9391 22.1785C10.0781 22.052 10.1861 21.8956 10.2641 21.7096C10.3417 21.5235 10.3807 21.3164 10.3807 21.0873C10.3807 20.8708 10.3345 20.6758 10.2426 20.5019C10.1507 20.328 10.0297 20.1805 9.88038 20.0577ZM9.60155 21.55C9.55627 21.6746 9.49755 21.7714 9.42403 21.8409C9.35051 21.9104 9.26982 21.9606 9.18196 21.9911C9.0941 22.0216 9.00489 22.0372 8.91524 22.0372H8.24103V20.2477H8.79241C8.98024 20.2477 9.13131 20.2773 9.24607 20.3365C9.36038 20.3957 9.44914 20.4692 9.51279 20.557C9.576 20.6449 9.61769 20.7368 9.63831 20.8327C9.65848 20.9287 9.66879 21.0134 9.66879 21.0869C9.66879 21.2711 9.64638 21.4253 9.60155 21.55Z" fill="black"/>
<path d="M14.3238 20.3517C14.1337 20.1518 13.8948 19.9909 13.6066 19.8707C13.3183 19.7506 12.9843 19.6901 12.6047 19.6901H11.2441V24.2069H12.9539C13.0108 24.2069 13.0987 24.1997 13.2175 24.1854C13.3358 24.171 13.4667 24.1388 13.6097 24.0872C13.7527 24.0361 13.9006 23.9595 14.0539 23.8572C14.2072 23.755 14.3449 23.6152 14.4677 23.4372C14.5905 23.2592 14.6914 23.0387 14.7712 22.7751C14.851 22.5115 14.8909 22.1937 14.8909 21.8221C14.8909 21.5522 14.8438 21.2895 14.7501 21.0345C14.6555 20.7798 14.5139 20.5521 14.3238 20.3517ZM13.7877 23.1893C13.5671 23.508 13.2076 23.6672 12.7091 23.6672H11.9798V20.2473H12.4088C12.7602 20.2473 13.0462 20.2934 13.2668 20.3853C13.4873 20.4772 13.6621 20.5978 13.7908 20.7471C13.9195 20.8964 14.006 21.0627 14.0512 21.2465C14.0961 21.4303 14.1185 21.6163 14.1185 21.8041C14.1185 22.4089 14.0082 22.871 13.7877 23.1893Z" fill="black"/>
<path d="M15.959 24.2069H16.7067V22.1722H18.5944V21.6697H16.7067V20.2477H18.784V19.6901H15.959V24.2069Z" fill="black"/>
<path d="M17.2258 10.2929C16.8138 10.2929 16.3081 10.3467 15.7204 10.4533C14.9001 9.5828 14.0439 8.31148 13.4396 7.06348C14.039 4.54014 13.7391 4.18286 13.6068 4.01431C13.4661 3.835 13.2675 3.54407 13.0415 3.54407C12.947 3.54407 12.6888 3.58711 12.5861 3.62117C12.3279 3.70724 12.1889 3.90628 12.0778 4.16583C11.7608 4.90683 12.1957 6.17007 12.643 7.14373C12.2607 8.66473 11.6192 10.4852 10.945 11.9627C9.246 12.7409 8.34362 13.5052 8.26203 14.2346C8.23245 14.4999 8.29521 14.8895 8.76186 15.2396C8.88962 15.3351 9.03934 15.3857 9.19534 15.3857C9.58758 15.3857 9.98386 15.0854 10.4424 14.4412C10.7769 13.9714 11.1359 13.3308 11.5107 12.5356C12.7112 12.0107 14.1963 11.5364 15.4681 11.2706C16.1763 11.9506 16.8107 12.2949 17.3558 12.2949C17.7574 12.2949 18.1017 12.1102 18.3509 11.761C18.6105 11.3974 18.6697 11.072 18.5258 10.7927C18.3532 10.4569 17.9278 10.2929 17.2258 10.2929ZM9.2052 14.629C8.99541 14.4681 9.00752 14.3596 9.012 14.3188C9.03979 14.0696 9.43024 13.6271 10.3882 13.0888C9.662 14.43 9.272 14.608 9.2052 14.629ZM12.8811 4.35366C12.9003 4.34738 13.3495 4.84721 12.9241 5.79531C12.2849 5.14128 12.8371 4.36845 12.8811 4.35366ZM11.9545 11.5377C12.4095 10.4533 12.8327 9.256 13.1532 8.14697C13.6566 9.05159 14.2613 9.92931 14.8665 10.6322C13.9099 10.8568 12.8914 11.1737 11.9545 11.5377ZM17.7377 11.323C17.5996 11.5162 17.3002 11.5207 17.1953 11.5207C16.9563 11.5207 16.8671 11.3786 16.5018 11.0975C16.803 11.059 17.0872 11.0491 17.3136 11.0491C17.7121 11.0491 17.7852 11.1078 17.8403 11.1374C17.8305 11.1692 17.8045 11.2293 17.7377 11.323Z" fill="black"/>
</svg>
