<svg width="26" height="26" viewBox="0 0 26 26" fill="none" xmlns="http://www.w3.org/2000/svg">
<path d="M22.8399 5.46314L22.4943 5.11752L17.969 0.592172L17.6233 0.246552C17.4669 0.0901034 17.2499 0 17.028 0H4.01817C3.48651 0 2.91406 0.410621 2.91406 1.31166V17.4828V24.8959V25.1034C2.91406 25.4787 3.29151 25.8444 3.73799 25.9597C3.76041 25.9655 3.78192 25.974 3.80523 25.9785C3.87517 25.9924 3.94644 26 4.01817 26H21.9824C22.0541 26 22.1254 25.9924 22.1953 25.9785C22.2186 25.974 22.2401 25.9655 22.2625 25.9597C22.709 25.8444 23.0865 25.4787 23.0865 25.1034V24.8959V17.4828V6.266C23.0865 5.92217 23.0452 5.66845 22.8399 5.46314ZM21.4884 5.37931H17.7072V1.5981L21.4884 5.37931ZM5.15544 0.896552C5.15544 1.144 5.35627 1.34483 5.60372 1.34483C5.85117 1.34483 6.05199 1.144 6.05199 0.896552H6.94854C6.94854 1.144 7.14937 1.34483 7.39682 1.34483C7.64427 1.34483 7.8451 1.144 7.8451 0.896552H8.74165C8.74165 1.144 8.94248 1.34483 9.18992 1.34483C9.43737 1.34483 9.6382 1.144 9.6382 0.896552H10.5348C10.5348 1.144 10.7356 1.34483 10.983 1.34483C11.2305 1.34483 11.4313 1.144 11.4313 0.896552H12.3279C12.3279 1.144 12.5287 1.34483 12.7761 1.34483C13.0236 1.34483 13.2244 1.144 13.2244 0.896552H14.121C14.121 1.144 14.3218 1.34483 14.5692 1.34483C14.8167 1.34483 15.0175 1.144 15.0175 0.896552H15.9141C15.9141 1.144 16.1149 1.34483 16.3623 1.34483C16.6098 1.34483 16.8106 1.144 16.8106 0.896552H16.8366C16.8218 0.953034 16.8106 1.01131 16.8106 1.07183V2.68966V4.48276V6.27586H17.7072C17.7072 6.52331 17.908 6.72414 18.1554 6.72414C18.4029 6.72414 18.6037 6.52331 18.6037 6.27586H19.5003C19.5003 6.52331 19.7011 6.72414 19.9485 6.72414C20.196 6.72414 20.3968 6.52331 20.3968 6.27586H21.2934C21.2934 6.52331 21.4942 6.72414 21.7416 6.72414C21.9891 6.72414 22.1899 6.52331 22.1899 6.27586C22.1899 6.2669 22.1854 6.25928 22.185 6.25031C22.1863 6.24986 22.1881 6.24986 22.1895 6.24941C22.1895 6.25614 22.1899 6.25883 22.1899 6.26555V6.27586V8.06897V9.86207V11.6552V11.9555L22.1169 11.886C22.159 11.8174 22.1899 11.7417 22.1899 11.6552C22.1899 11.4077 21.9891 11.2069 21.7416 11.2069C21.6471 11.2069 21.5646 11.2428 21.492 11.2925L21.2015 11.0168C21.2553 10.9429 21.2934 10.8568 21.2934 10.7586C21.2934 10.5112 21.0925 10.3103 20.8451 10.3103C20.7384 10.3103 20.6447 10.3529 20.5681 10.4148L20.287 10.1476C20.3524 10.0696 20.3968 9.97235 20.3968 9.86207C20.3968 9.61462 20.196 9.41379 19.9485 9.41379C19.8302 9.41379 19.724 9.46176 19.6437 9.53707L19.3716 9.27841C19.451 9.19772 19.5003 9.08745 19.5003 8.96552C19.5003 8.71807 19.2994 8.51724 19.052 8.51724C18.9215 8.51724 18.8068 8.57507 18.7248 8.66383L18.4643 8.41638C18.4585 8.411 18.4513 8.40921 18.4455 8.40428C18.5405 8.32224 18.6037 8.20434 18.6037 8.06897C18.6037 7.82152 18.4029 7.62069 18.1554 7.62069C17.908 7.62069 17.7072 7.82152 17.7072 8.06897C17.7072 8.20614 17.7722 8.32448 17.869 8.40652C17.8551 8.41862 17.8372 8.42535 17.8246 8.43924L17.6005 8.6849C17.518 8.58493 17.3983 8.51724 17.2589 8.51724C17.0114 8.51724 16.8106 8.71807 16.8106 8.96552C16.8106 9.11972 16.8931 9.24883 17.0114 9.32952L16.7366 9.63031C16.6578 9.503 16.5233 9.41379 16.3623 9.41379C16.1149 9.41379 15.9141 9.61462 15.9141 9.86207C15.9141 10.0369 16.0172 10.1848 16.1633 10.2583L15.8733 10.5757C15.8033 10.4202 15.6478 10.3103 15.4658 10.3103C15.2183 10.3103 15.0175 10.5112 15.0175 10.7586C15.0175 10.9559 15.1466 11.1181 15.3237 11.1782L14.9942 11.5391C14.9422 11.3494 14.7754 11.2069 14.5692 11.2069C14.3218 11.2069 14.121 11.4077 14.121 11.6552C14.121 11.8757 14.2832 12.0506 14.493 12.0882L14.112 12.5056C14.0873 12.281 13.904 12.1034 13.6727 12.1034C13.4252 12.1034 13.2244 12.3043 13.2244 12.5517C13.2244 12.7956 13.4199 12.9919 13.6619 12.9978L13.4338 13.2479L11.3076 11.1217C11.1422 10.9563 10.8781 10.946 10.7002 11.0971L7.82582 13.5433C7.83299 13.5119 7.8451 13.4819 7.8451 13.4483C7.8451 13.2008 7.64427 13 7.39682 13C7.14937 13 6.94854 13.2008 6.94854 13.4483C6.94854 13.6957 7.14937 13.8966 7.39682 13.8966C7.40354 13.8966 7.40892 13.893 7.41565 13.893L6.93913 14.2982C6.91492 14.0736 6.73113 13.8966 6.50027 13.8966C6.25282 13.8966 6.05199 14.0974 6.05199 14.3448C6.05199 14.5515 6.19455 14.7178 6.38506 14.7698L6.01972 15.0809C5.95472 14.9132 5.79423 14.7931 5.60372 14.7931C5.35627 14.7931 5.15544 14.9939 5.15544 15.2414C5.15544 15.4068 5.24913 15.5453 5.38272 15.6229L5.07027 15.8887C4.98913 15.7717 4.86048 15.6897 4.70717 15.6897C4.45972 15.6897 4.25889 15.8905 4.25889 16.1379C4.25889 16.2652 4.31313 16.3791 4.3983 16.4607L3.81061 16.961V15.6897C4.05806 15.6897 4.25889 15.4888 4.25889 15.2414C4.25889 14.9939 4.05806 14.7931 3.81061 14.7931V13.8966C4.05806 13.8966 4.25889 13.6957 4.25889 13.4483C4.25889 13.2008 4.05806 13 3.81061 13V12.1034C4.05806 12.1034 4.25889 11.9026 4.25889 11.6552C4.25889 11.4077 4.05806 11.2069 3.81061 11.2069V10.3103C4.05806 10.3103 4.25889 10.1095 4.25889 9.86207C4.25889 9.61462 4.05806 9.41379 3.81061 9.41379V8.51724C4.05806 8.51724 4.25889 8.31641 4.25889 8.06897C4.25889 7.82152 4.05806 7.62069 3.81061 7.62069V6.72414C4.05806 6.72414 4.25889 6.52331 4.25889 6.27586C4.25889 6.02841 4.05806 5.82759 3.81061 5.82759V4.93103C4.05806 4.93103 4.25889 4.73021 4.25889 4.48276C4.25889 4.23531 4.05806 4.03448 3.81061 4.03448V3.13793C4.05806 3.13793 4.25889 2.9371 4.25889 2.68966C4.25889 2.44221 4.05806 2.24138 3.81061 2.24138V1.34483C4.05806 1.34483 4.25889 1.144 4.25889 0.896552H5.15544ZM4.01817 25.1034C3.98634 25.1034 3.95765 25.0918 3.92941 25.0815C3.85948 25.0483 3.81061 24.9784 3.81061 24.8959V18.3793H22.1899V24.8959C22.1899 24.9784 22.1411 25.0479 22.0711 25.0815C22.0429 25.0918 22.0142 25.1034 21.9824 25.1034H4.01817ZM4.58075 17.4828L10.9167 12.09C10.9395 12.0936 10.9597 12.1034 10.983 12.1034C10.9942 12.1034 11.0041 12.0976 11.0149 12.0972L15.5895 16.6714C15.7648 16.8467 16.0481 16.8467 16.2234 16.6714C16.3986 16.4961 16.3986 16.2128 16.2234 16.0375L14.0685 13.8827L18.1783 9.38152L22.1899 13.1928V17.4828H4.58075Z" fill="black"/>
<path d="M9.88038 20.0577C9.7311 19.9353 9.56255 19.8429 9.37472 19.782C9.18689 19.7206 8.99682 19.6901 8.80496 19.6901H7.50586V24.2069H8.24148V22.5765H8.78703C9.02372 22.5765 9.24069 22.542 9.43658 22.4725C9.63248 22.403 9.80014 22.3049 9.9391 22.1785C10.0781 22.052 10.1861 21.8956 10.2641 21.7096C10.3417 21.5235 10.3807 21.3164 10.3807 21.0873C10.3807 20.8708 10.3345 20.6758 10.2426 20.5019C10.1507 20.328 10.0297 20.1805 9.88038 20.0577ZM9.60155 21.55C9.55627 21.6746 9.49755 21.7714 9.42403 21.8409C9.35051 21.9104 9.26982 21.9606 9.18196 21.9911C9.0941 22.0216 9.00489 22.0372 8.91524 22.0372H8.24103V20.2477H8.79241C8.98024 20.2477 9.13131 20.2773 9.24607 20.3365C9.36038 20.3957 9.44914 20.4692 9.51279 20.557C9.576 20.6449 9.61769 20.7368 9.63831 20.8327C9.65848 20.9287 9.66879 21.0134 9.66879 21.0869C9.66879 21.2711 9.64638 21.4253 9.60155 21.55Z" fill="black"/>
<path d="M13.7396 22.8033L11.9684 19.6901H11.2207V24.2069H11.9684V21.0936L13.7396 24.2069H14.4873V19.6901H13.7396V22.8033Z" fill="black"/>
<path d="M17.4044 22.3806H18.1705V23.4959C18.1378 23.5412 18.0867 23.5757 18.0172 23.5999C17.9477 23.6246 17.8751 23.6439 17.7998 23.6582C17.7241 23.6726 17.6487 23.6829 17.573 23.6887C17.4972 23.695 17.4372 23.6981 17.3923 23.6981C17.2453 23.6981 17.105 23.6636 16.9723 23.5941C16.8396 23.5246 16.7208 23.4184 16.6168 23.2754C16.5128 23.1324 16.4308 22.9486 16.3716 22.724C16.3124 22.4994 16.2806 22.2336 16.2766 21.9274C16.2806 21.6127 16.3133 21.3473 16.3747 21.1308C16.4362 20.9143 16.5209 20.7377 16.6289 20.6005C16.737 20.4633 16.8598 20.367 16.9965 20.3096C17.1332 20.2522 17.2771 20.224 17.4286 20.224C17.5636 20.224 17.694 20.2509 17.8209 20.3038C17.9473 20.3567 18.0598 20.4427 18.158 20.5611L18.6668 20.1074C18.4991 19.9442 18.3091 19.8214 18.097 19.7398C17.8845 19.6578 17.6559 19.6174 17.4107 19.6174C17.1449 19.6174 16.8979 19.6672 16.6693 19.7676C16.4402 19.868 16.2412 20.0137 16.0717 20.206C15.9023 20.3983 15.7691 20.6382 15.6732 20.926C15.5773 21.2142 15.5293 21.5482 15.5293 21.9279C15.5293 22.3076 15.5773 22.6429 15.6732 22.9329C15.7691 23.2229 15.9018 23.4641 16.0717 23.656C16.2412 23.8483 16.4393 23.9931 16.6661 24.0912C16.893 24.1894 17.1413 24.2383 17.4107 24.2383C17.5456 24.2383 17.6815 24.2284 17.8182 24.2078C17.9549 24.1872 18.0881 24.1527 18.2167 24.1038C18.3454 24.0549 18.4682 23.9926 18.5843 23.9169C18.7004 23.8411 18.8057 23.7443 18.8999 23.6259V21.8794H17.4044V22.3806Z" fill="black"/>
<path d="M4.70804 2.24138C4.95562 2.24138 5.15632 2.04068 5.15632 1.7931C5.15632 1.54553 4.95562 1.34483 4.70804 1.34483C4.46047 1.34483 4.25977 1.54553 4.25977 1.7931C4.25977 2.04068 4.46047 2.24138 4.70804 2.24138Z" fill="black"/>
<path d="M6.50101 2.24138C6.74859 2.24138 6.94929 2.04068 6.94929 1.7931C6.94929 1.54553 6.74859 1.34483 6.50101 1.34483C6.25343 1.34483 6.05273 1.54553 6.05273 1.7931C6.05273 2.04068 6.25343 2.24138 6.50101 2.24138Z" fill="black"/>
<path d="M8.29398 2.24138C8.54155 2.24138 8.74225 2.04068 8.74225 1.7931C8.74225 1.54553 8.54155 1.34483 8.29398 1.34483C8.0464 1.34483 7.8457 1.54553 7.8457 1.7931C7.8457 2.04068 8.0464 2.24138 8.29398 2.24138Z" fill="black"/>
<path d="M10.0869 2.24138C10.3345 2.24138 10.5352 2.04068 10.5352 1.7931C10.5352 1.54553 10.3345 1.34483 10.0869 1.34483C9.83937 1.34483 9.63867 1.54553 9.63867 1.7931C9.63867 2.04068 9.83937 2.24138 10.0869 2.24138Z" fill="black"/>
<path d="M11.8799 2.24138C12.1275 2.24138 12.3282 2.04068 12.3282 1.7931C12.3282 1.54553 12.1275 1.34483 11.8799 1.34483C11.6323 1.34483 11.4316 1.54553 11.4316 1.7931C11.4316 2.04068 11.6323 2.24138 11.8799 2.24138Z" fill="black"/>
<path d="M13.6729 2.24138C13.9205 2.24138 14.1212 2.04068 14.1212 1.7931C14.1212 1.54553 13.9205 1.34483 13.6729 1.34483C13.4253 1.34483 13.2246 1.54553 13.2246 1.7931C13.2246 2.04068 13.4253 2.24138 13.6729 2.24138Z" fill="black"/>
<path d="M15.4659 2.24138C15.7134 2.24138 15.9141 2.04068 15.9141 1.7931C15.9141 1.54553 15.7134 1.34483 15.4659 1.34483C15.2183 1.34483 15.0176 1.54553 15.0176 1.7931C15.0176 2.04068 15.2183 2.24138 15.4659 2.24138Z" fill="black"/>
<path d="M16.3623 3.13793C16.6099 3.13793 16.8106 2.93723 16.8106 2.68965C16.8106 2.44208 16.6099 2.24138 16.3623 2.24138C16.1148 2.24138 15.9141 2.44208 15.9141 2.68965C15.9141 2.93723 16.1148 3.13793 16.3623 3.13793Z" fill="black"/>
<path d="M14.5694 3.13793C14.8169 3.13793 15.0176 2.93723 15.0176 2.68965C15.0176 2.44208 14.8169 2.24138 14.5694 2.24138C14.3218 2.24138 14.1211 2.44208 14.1211 2.68965C14.1211 2.93723 14.3218 3.13793 14.5694 3.13793Z" fill="black"/>
<path d="M12.7764 3.13793C13.024 3.13793 13.2247 2.93723 13.2247 2.68965C13.2247 2.44208 13.024 2.24138 12.7764 2.24138C12.5288 2.24138 12.3281 2.44208 12.3281 2.68965C12.3281 2.93723 12.5288 3.13793 12.7764 3.13793Z" fill="black"/>
<path d="M10.9834 3.13793C11.231 3.13793 11.4317 2.93723 11.4317 2.68965C11.4317 2.44208 11.231 2.24138 10.9834 2.24138C10.7359 2.24138 10.5352 2.44208 10.5352 2.68965C10.5352 2.93723 10.7359 3.13793 10.9834 3.13793Z" fill="black"/>
<path d="M9.19046 3.13793C9.43804 3.13793 9.63874 2.93723 9.63874 2.68965C9.63874 2.44208 9.43804 2.24138 9.19046 2.24138C8.94289 2.24138 8.74219 2.44208 8.74219 2.68965C8.74219 2.93723 8.94289 3.13793 9.19046 3.13793Z" fill="black"/>
<path d="M7.3975 3.13793C7.64507 3.13793 7.84577 2.93723 7.84577 2.68965C7.84577 2.44208 7.64507 2.24138 7.3975 2.24138C7.14992 2.24138 6.94922 2.44208 6.94922 2.68965C6.94922 2.93723 7.14992 3.13793 7.3975 3.13793Z" fill="black"/>
<path d="M5.60453 3.13793C5.8521 3.13793 6.0528 2.93723 6.0528 2.68965C6.0528 2.44208 5.8521 2.24138 5.60453 2.24138C5.35695 2.24138 5.15625 2.44208 5.15625 2.68965C5.15625 2.93723 5.35695 3.13793 5.60453 3.13793Z" fill="black"/>
<path d="M4.70804 4.03448C4.95562 4.03448 5.15632 3.83378 5.15632 3.58621C5.15632 3.33863 4.95562 3.13793 4.70804 3.13793C4.46047 3.13793 4.25977 3.33863 4.25977 3.58621C4.25977 3.83378 4.46047 4.03448 4.70804 4.03448Z" fill="black"/>
<path d="M6.50101 4.03448C6.74859 4.03448 6.94929 3.83378 6.94929 3.58621C6.94929 3.33863 6.74859 3.13793 6.50101 3.13793C6.25343 3.13793 6.05273 3.33863 6.05273 3.58621C6.05273 3.83378 6.25343 4.03448 6.50101 4.03448Z" fill="black"/>
<path d="M8.29398 4.03448C8.54155 4.03448 8.74225 3.83378 8.74225 3.58621C8.74225 3.33863 8.54155 3.13793 8.29398 3.13793C8.0464 3.13793 7.8457 3.33863 7.8457 3.58621C7.8457 3.83378 8.0464 4.03448 8.29398 4.03448Z" fill="black"/>
<path d="M10.0869 4.03448C10.3345 4.03448 10.5352 3.83378 10.5352 3.58621C10.5352 3.33863 10.3345 3.13793 10.0869 3.13793C9.83937 3.13793 9.63867 3.33863 9.63867 3.58621C9.63867 3.83378 9.83937 4.03448 10.0869 4.03448Z" fill="black"/>
<path d="M11.8799 4.03448C12.1275 4.03448 12.3282 3.83378 12.3282 3.58621C12.3282 3.33863 12.1275 3.13793 11.8799 3.13793C11.6323 3.13793 11.4316 3.33863 11.4316 3.58621C11.4316 3.83378 11.6323 4.03448 11.8799 4.03448Z" fill="black"/>
<path d="M13.6729 4.03448C13.9205 4.03448 14.1212 3.83378 14.1212 3.58621C14.1212 3.33863 13.9205 3.13793 13.6729 3.13793C13.4253 3.13793 13.2246 3.33863 13.2246 3.58621C13.2246 3.83378 13.4253 4.03448 13.6729 4.03448Z" fill="black"/>
<path d="M15.4659 4.03448C15.7134 4.03448 15.9141 3.83378 15.9141 3.58621C15.9141 3.33863 15.7134 3.13793 15.4659 3.13793C15.2183 3.13793 15.0176 3.33863 15.0176 3.58621C15.0176 3.83378 15.2183 4.03448 15.4659 4.03448Z" fill="black"/>
<path d="M16.3623 4.93103C16.6099 4.93103 16.8106 4.73033 16.8106 4.48275C16.8106 4.23518 16.6099 4.03448 16.3623 4.03448C16.1148 4.03448 15.9141 4.23518 15.9141 4.48275C15.9141 4.73033 16.1148 4.93103 16.3623 4.93103Z" fill="black"/>
<path d="M14.5694 4.93103C14.8169 4.93103 15.0176 4.73033 15.0176 4.48275C15.0176 4.23518 14.8169 4.03448 14.5694 4.03448C14.3218 4.03448 14.1211 4.23518 14.1211 4.48275C14.1211 4.73033 14.3218 4.93103 14.5694 4.93103Z" fill="black"/>
<path d="M12.7764 4.93103C13.024 4.93103 13.2247 4.73033 13.2247 4.48275C13.2247 4.23518 13.024 4.03448 12.7764 4.03448C12.5288 4.03448 12.3281 4.23518 12.3281 4.48275C12.3281 4.73033 12.5288 4.93103 12.7764 4.93103Z" fill="black"/>
<path d="M10.9834 4.93103C11.231 4.93103 11.4317 4.73033 11.4317 4.48275C11.4317 4.23518 11.231 4.03448 10.9834 4.03448C10.7359 4.03448 10.5352 4.23518 10.5352 4.48275C10.5352 4.73033 10.7359 4.93103 10.9834 4.93103Z" fill="black"/>
<path d="M9.19046 4.93103C9.43804 4.93103 9.63874 4.73033 9.63874 4.48275C9.63874 4.23518 9.43804 4.03448 9.19046 4.03448C8.94289 4.03448 8.74219 4.23518 8.74219 4.48275C8.74219 4.73033 8.94289 4.93103 9.19046 4.93103Z" fill="black"/>
<path d="M7.3975 4.93103C7.64507 4.93103 7.84577 4.73033 7.84577 4.48275C7.84577 4.23518 7.64507 4.03448 7.3975 4.03448C7.14992 4.03448 6.94922 4.23518 6.94922 4.48275C6.94922 4.73033 7.14992 4.93103 7.3975 4.93103Z" fill="black"/>
<path d="M5.60453 4.93103C5.8521 4.93103 6.0528 4.73033 6.0528 4.48275C6.0528 4.23518 5.8521 4.03448 5.60453 4.03448C5.35695 4.03448 5.15625 4.23518 5.15625 4.48275C5.15625 4.73033 5.35695 4.93103 5.60453 4.93103Z" fill="black"/>
<path d="M4.70804 5.82758C4.95562 5.82758 5.15632 5.62688 5.15632 5.37931C5.15632 5.13173 4.95562 4.93103 4.70804 4.93103C4.46047 4.93103 4.25977 5.13173 4.25977 5.37931C4.25977 5.62688 4.46047 5.82758 4.70804 5.82758Z" fill="black"/>
<path d="M10.0869 5.82758C10.3345 5.82758 10.5352 5.62688 10.5352 5.37931C10.5352 5.13173 10.3345 4.93103 10.0869 4.93103C9.83937 4.93103 9.63867 5.13173 9.63867 5.37931C9.63867 5.62688 9.83937 5.82758 10.0869 5.82758Z" fill="black"/>
<path d="M11.8799 5.82758C12.1275 5.82758 12.3282 5.62688 12.3282 5.37931C12.3282 5.13173 12.1275 4.93103 11.8799 4.93103C11.6323 4.93103 11.4316 5.13173 11.4316 5.37931C11.4316 5.62688 11.6323 5.82758 11.8799 5.82758Z" fill="black"/>
<path d="M13.6729 5.82758C13.9205 5.82758 14.1212 5.62688 14.1212 5.37931C14.1212 5.13173 13.9205 4.93103 13.6729 4.93103C13.4253 4.93103 13.2246 5.13173 13.2246 5.37931C13.2246 5.62688 13.4253 5.82758 13.6729 5.82758Z" fill="black"/>
<path d="M15.4659 5.82758C15.7134 5.82758 15.9141 5.62688 15.9141 5.37931C15.9141 5.13173 15.7134 4.93103 15.4659 4.93103C15.2183 4.93103 15.0176 5.13173 15.0176 5.37931C15.0176 5.62688 15.2183 5.82758 15.4659 5.82758Z" fill="black"/>
<path d="M16.3623 6.72414C16.6099 6.72414 16.8106 6.52344 16.8106 6.27586C16.8106 6.02828 16.6099 5.82758 16.3623 5.82758C16.1148 5.82758 15.9141 6.02828 15.9141 6.27586C15.9141 6.52344 16.1148 6.72414 16.3623 6.72414Z" fill="black"/>
<path d="M14.5694 6.72414C14.8169 6.72414 15.0176 6.52344 15.0176 6.27586C15.0176 6.02828 14.8169 5.82758 14.5694 5.82758C14.3218 5.82758 14.1211 6.02828 14.1211 6.27586C14.1211 6.52344 14.3218 6.72414 14.5694 6.72414Z" fill="black"/>
<path d="M12.7764 6.72414C13.024 6.72414 13.2247 6.52344 13.2247 6.27586C13.2247 6.02828 13.024 5.82758 12.7764 5.82758C12.5288 5.82758 12.3281 6.02828 12.3281 6.27586C12.3281 6.52344 12.5288 6.72414 12.7764 6.72414Z" fill="black"/>
<path d="M10.9834 6.72414C11.231 6.72414 11.4317 6.52344 11.4317 6.27586C11.4317 6.02828 11.231 5.82758 10.9834 5.82758C10.7359 5.82758 10.5352 6.02828 10.5352 6.27586C10.5352 6.52344 10.7359 6.72414 10.9834 6.72414Z" fill="black"/>
<path d="M11.8799 7.62069C12.1275 7.62069 12.3282 7.41999 12.3282 7.17241C12.3282 6.92484 12.1275 6.72414 11.8799 6.72414C11.6323 6.72414 11.4316 6.92484 11.4316 7.17241C11.4316 7.41999 11.6323 7.62069 11.8799 7.62069Z" fill="black"/>
<path d="M13.6729 7.62069C13.9205 7.62069 14.1212 7.41999 14.1212 7.17241C14.1212 6.92484 13.9205 6.72414 13.6729 6.72414C13.4253 6.72414 13.2246 6.92484 13.2246 7.17241C13.2246 7.41999 13.4253 7.62069 13.6729 7.62069Z" fill="black"/>
<path d="M15.4659 7.62069C15.7134 7.62069 15.9141 7.41999 15.9141 7.17241C15.9141 6.92484 15.7134 6.72414 15.4659 6.72414C15.2183 6.72414 15.0176 6.92484 15.0176 7.17241C15.0176 7.41999 15.2183 7.62069 15.4659 7.62069Z" fill="black"/>
<path d="M17.2588 7.62069C17.5064 7.62069 17.7071 7.41999 17.7071 7.17241C17.7071 6.92484 17.5064 6.72414 17.2588 6.72414C17.0112 6.72414 16.8105 6.92484 16.8105 7.17241C16.8105 7.41999 17.0112 7.62069 17.2588 7.62069Z" fill="black"/>
<path d="M19.0518 7.62069C19.2994 7.62069 19.5001 7.41999 19.5001 7.17241C19.5001 6.92484 19.2994 6.72414 19.0518 6.72414C18.8042 6.72414 18.6035 6.92484 18.6035 7.17241C18.6035 7.41999 18.8042 7.62069 19.0518 7.62069Z" fill="black"/>
<path d="M19.9483 8.51724C20.1959 8.51724 20.3966 8.31654 20.3966 8.06896C20.3966 7.82139 20.1959 7.62069 19.9483 7.62069C19.7007 7.62069 19.5 7.82139 19.5 8.06896C19.5 8.31654 19.7007 8.51724 19.9483 8.51724Z" fill="black"/>
<path d="M21.7412 10.3103C21.9888 10.3103 22.1895 10.1096 22.1895 9.86206C22.1895 9.61449 21.9888 9.41379 21.7412 9.41379C21.4937 9.41379 21.293 9.61449 21.293 9.86206C21.293 10.1096 21.4937 10.3103 21.7412 10.3103Z" fill="black"/>
<path d="M20.8448 9.41379C21.0923 9.41379 21.293 9.21309 21.293 8.96552C21.293 8.71794 21.0923 8.51724 20.8448 8.51724C20.5972 8.51724 20.3965 8.71794 20.3965 8.96552C20.3965 9.21309 20.5972 9.41379 20.8448 9.41379Z" fill="black"/>
<path d="M21.7412 8.51724C21.9888 8.51724 22.1895 8.31654 22.1895 8.06896C22.1895 7.82139 21.9888 7.62069 21.7412 7.62069C21.4937 7.62069 21.293 7.82139 21.293 8.06896C21.293 8.31654 21.4937 8.51724 21.7412 8.51724Z" fill="black"/>
<path d="M20.8448 7.62069C21.0923 7.62069 21.293 7.41999 21.293 7.17241C21.293 6.92484 21.0923 6.72414 20.8448 6.72414C20.5972 6.72414 20.3965 6.92484 20.3965 7.17241C20.3965 7.41999 20.5972 7.62069 20.8448 7.62069Z" fill="black"/>
<path d="M16.3623 8.51724C16.6099 8.51724 16.8106 8.31654 16.8106 8.06896C16.8106 7.82139 16.6099 7.62069 16.3623 7.62069C16.1148 7.62069 15.9141 7.82139 15.9141 8.06896C15.9141 8.31654 16.1148 8.51724 16.3623 8.51724Z" fill="black"/>
<path d="M14.5694 8.51724C14.8169 8.51724 15.0176 8.31654 15.0176 8.06896C15.0176 7.82139 14.8169 7.62069 14.5694 7.62069C14.3218 7.62069 14.1211 7.82139 14.1211 8.06896C14.1211 8.31654 14.3218 8.51724 14.5694 8.51724Z" fill="black"/>
<path d="M12.7764 8.51724C13.024 8.51724 13.2247 8.31654 13.2247 8.06896C13.2247 7.82139 13.024 7.62069 12.7764 7.62069C12.5288 7.62069 12.3281 7.82139 12.3281 8.06896C12.3281 8.31654 12.5288 8.51724 12.7764 8.51724Z" fill="black"/>
<path d="M10.9834 8.51724C11.231 8.51724 11.4317 8.31654 11.4317 8.06896C11.4317 7.82139 11.231 7.62069 10.9834 7.62069C10.7359 7.62069 10.5352 7.82139 10.5352 8.06896C10.5352 8.31654 10.7359 8.51724 10.9834 8.51724Z" fill="black"/>
<path d="M4.70804 9.41379C4.89901 9.41379 5.05949 9.2932 5.12404 9.1251C5.18501 9.26003 5.25673 9.38913 5.33966 9.50972C5.23118 9.59175 5.15632 9.71548 5.15632 9.86207C5.15632 10.1095 5.35715 10.3103 5.60459 10.3103C5.74894 10.3103 5.87132 10.2377 5.95335 10.1319C6.06901 10.2144 6.19228 10.2866 6.32183 10.3489C6.16359 10.4184 6.05287 10.5753 6.05287 10.7586C6.05287 11.0061 6.2537 11.2069 6.50115 11.2069C6.74859 11.2069 6.94942 11.0061 6.94942 10.7586C6.94942 10.6788 6.92297 10.608 6.88666 10.543C7.05163 10.5775 7.22242 10.5959 7.3977 10.5959C7.57297 10.5959 7.74377 10.5775 7.90873 10.543C7.87242 10.608 7.84597 10.6788 7.84597 10.7586C7.84597 11.0061 8.0468 11.2069 8.29425 11.2069C8.5417 11.2069 8.74252 11.0061 8.74252 10.7586C8.74252 10.5753 8.6318 10.4184 8.47401 10.3489C8.60311 10.2866 8.72639 10.2149 8.84249 10.1319C8.92408 10.2377 9.04646 10.3103 9.1908 10.3103C9.43825 10.3103 9.63908 10.1095 9.63908 9.86207C9.63908 9.71548 9.56421 9.59175 9.45573 9.51017C9.53866 9.38913 9.61039 9.26048 9.67135 9.12555C9.7359 9.2932 9.89639 9.41379 10.0874 9.41379C10.3348 9.41379 10.5356 9.21296 10.5356 8.96551C10.5356 8.71807 10.3348 8.51724 10.0874 8.51724C9.99546 8.51724 9.91477 8.55175 9.84394 8.59882C9.87666 8.43744 9.89415 8.27069 9.89415 8.09944C9.89415 7.90175 9.86859 7.71034 9.82511 7.52565C9.89953 7.58169 9.98739 7.62069 10.0874 7.62069C10.3348 7.62069 10.5356 7.41986 10.5356 7.17241C10.5356 6.92496 10.3348 6.72413 10.0874 6.72413C9.88115 6.72413 9.71484 6.86669 9.66239 7.05631C9.59604 6.91241 9.51625 6.77613 9.4248 6.64882C9.55077 6.56903 9.63908 6.43544 9.63908 6.27586C9.63908 6.02841 9.43825 5.82758 9.1908 5.82758C9.02897 5.82758 8.89315 5.91813 8.8147 6.04679C8.68111 5.954 8.53811 5.8742 8.38704 5.80875C8.58832 5.76482 8.74252 5.59403 8.74252 5.37931C8.74252 5.13186 8.5417 4.93103 8.29425 4.93103C8.0468 4.93103 7.84597 5.13186 7.84597 5.37931C7.84597 5.49138 7.89125 5.59089 7.95939 5.66934C7.77828 5.62765 7.5909 5.60344 7.3977 5.60344C7.20449 5.60344 7.01711 5.62765 6.83601 5.66934C6.90415 5.59089 6.94942 5.49138 6.94942 5.37931C6.94942 5.13186 6.74859 4.93103 6.50115 4.93103C6.2537 4.93103 6.05287 5.13186 6.05287 5.37931C6.05287 5.59403 6.20708 5.76482 6.40835 5.80875C6.25728 5.8742 6.11473 5.954 5.9807 6.04679C5.90225 5.91813 5.76642 5.82758 5.60459 5.82758C5.35715 5.82758 5.15632 6.02841 5.15632 6.27586C5.15632 6.43544 5.24463 6.56903 5.37059 6.64882C5.27914 6.77613 5.1998 6.91286 5.13301 7.05631C5.08056 6.86669 4.91425 6.72413 4.70804 6.72413C4.46059 6.72413 4.25977 6.92496 4.25977 7.17241C4.25977 7.41986 4.46059 7.62069 4.70804 7.62069C4.80801 7.62069 4.89587 7.58169 4.97028 7.5261C4.9268 7.71079 4.90125 7.9022 4.90125 8.09989C4.90125 8.27069 4.91873 8.43789 4.95146 8.59927C4.88063 8.55175 4.79994 8.51724 4.70804 8.51724C4.46059 8.51724 4.25977 8.71807 4.25977 8.96551C4.25977 9.21296 4.46059 9.41379 4.70804 9.41379ZM7.3977 6.5C8.2799 6.5 8.99759 7.21769 8.99759 8.09989C8.99759 8.9821 8.2799 9.69979 7.3977 9.69979C6.51549 9.69979 5.7978 8.9821 5.7978 8.09989C5.7978 7.21769 6.51549 6.5 7.3977 6.5Z" fill="black"/>
<path d="M11.8799 9.41379C12.1275 9.41379 12.3282 9.21309 12.3282 8.96552C12.3282 8.71794 12.1275 8.51724 11.8799 8.51724C11.6323 8.51724 11.4316 8.71794 11.4316 8.96552C11.4316 9.21309 11.6323 9.41379 11.8799 9.41379Z" fill="black"/>
<path d="M13.6729 9.41379C13.9205 9.41379 14.1212 9.21309 14.1212 8.96552C14.1212 8.71794 13.9205 8.51724 13.6729 8.51724C13.4253 8.51724 13.2246 8.71794 13.2246 8.96552C13.2246 9.21309 13.4253 9.41379 13.6729 9.41379Z" fill="black"/>
<path d="M15.4659 9.41379C15.7134 9.41379 15.9141 9.21309 15.9141 8.96552C15.9141 8.71794 15.7134 8.51724 15.4659 8.51724C15.2183 8.51724 15.0176 8.71794 15.0176 8.96552C15.0176 9.21309 15.2183 9.41379 15.4659 9.41379Z" fill="black"/>
<path d="M14.5694 10.3103C14.8169 10.3103 15.0176 10.1096 15.0176 9.86206C15.0176 9.61449 14.8169 9.41379 14.5694 9.41379C14.3218 9.41379 14.1211 9.61449 14.1211 9.86206C14.1211 10.1096 14.3218 10.3103 14.5694 10.3103Z" fill="black"/>
<path d="M12.7764 10.3103C13.024 10.3103 13.2247 10.1096 13.2247 9.86206C13.2247 9.61449 13.024 9.41379 12.7764 9.41379C12.5288 9.41379 12.3281 9.61449 12.3281 9.86206C12.3281 10.1096 12.5288 10.3103 12.7764 10.3103Z" fill="black"/>
<path d="M10.9834 10.3103C11.231 10.3103 11.4317 10.1096 11.4317 9.86206C11.4317 9.61449 11.231 9.41379 10.9834 9.41379C10.7359 9.41379 10.5352 9.61449 10.5352 9.86206C10.5352 10.1096 10.7359 10.3103 10.9834 10.3103Z" fill="black"/>
<path d="M4.70804 11.2069C4.95562 11.2069 5.15632 11.0062 5.15632 10.7586C5.15632 10.511 4.95562 10.3103 4.70804 10.3103C4.46047 10.3103 4.25977 10.511 4.25977 10.7586C4.25977 11.0062 4.46047 11.2069 4.70804 11.2069Z" fill="black"/>
<path d="M10.0869 11.2069C10.3345 11.2069 10.5352 11.0062 10.5352 10.7586C10.5352 10.511 10.3345 10.3103 10.0869 10.3103C9.83937 10.3103 9.63867 10.511 9.63867 10.7586C9.63867 11.0062 9.83937 11.2069 10.0869 11.2069Z" fill="black"/>
<path d="M11.8799 11.2069C12.1275 11.2069 12.3282 11.0062 12.3282 10.7586C12.3282 10.511 12.1275 10.3103 11.8799 10.3103C11.6323 10.3103 11.4316 10.511 11.4316 10.7586C11.4316 11.0062 11.6323 11.2069 11.8799 11.2069Z" fill="black"/>
<path d="M13.6729 11.2069C13.9205 11.2069 14.1212 11.0062 14.1212 10.7586C14.1212 10.511 13.9205 10.3103 13.6729 10.3103C13.4253 10.3103 13.2246 10.511 13.2246 10.7586C13.2246 11.0062 13.4253 11.2069 13.6729 11.2069Z" fill="black"/>
<path d="M12.7764 12.1034C13.024 12.1034 13.2247 11.9027 13.2247 11.6552C13.2247 11.4076 13.024 11.2069 12.7764 11.2069C12.5288 11.2069 12.3281 11.4076 12.3281 11.6552C12.3281 11.9027 12.5288 12.1034 12.7764 12.1034Z" fill="black"/>
<path d="M9.19046 12.1034C9.43804 12.1034 9.63874 11.9027 9.63874 11.6552C9.63874 11.4076 9.43804 11.2069 9.19046 11.2069C8.94289 11.2069 8.74219 11.4076 8.74219 11.6552C8.74219 11.9027 8.94289 12.1034 9.19046 12.1034Z" fill="black"/>
<path d="M7.3975 12.1034C7.64507 12.1034 7.84577 11.9027 7.84577 11.6552C7.84577 11.4076 7.64507 11.2069 7.3975 11.2069C7.14992 11.2069 6.94922 11.4076 6.94922 11.6552C6.94922 11.9027 7.14992 12.1034 7.3975 12.1034Z" fill="black"/>
<path d="M5.60453 12.1034C5.8521 12.1034 6.0528 11.9027 6.0528 11.6552C6.0528 11.4076 5.8521 11.2069 5.60453 11.2069C5.35695 11.2069 5.15625 11.4076 5.15625 11.6552C5.15625 11.9027 5.35695 12.1034 5.60453 12.1034Z" fill="black"/>
<path d="M4.70804 13C4.95562 13 5.15632 12.7993 5.15632 12.5517C5.15632 12.3041 4.95562 12.1034 4.70804 12.1034C4.46047 12.1034 4.25977 12.3041 4.25977 12.5517C4.25977 12.7993 4.46047 13 4.70804 13Z" fill="black"/>
<path d="M6.50101 13C6.74859 13 6.94929 12.7993 6.94929 12.5517C6.94929 12.3041 6.74859 12.1034 6.50101 12.1034C6.25343 12.1034 6.05273 12.3041 6.05273 12.5517C6.05273 12.7993 6.25343 13 6.50101 13Z" fill="black"/>
<path d="M8.29398 13C8.54155 13 8.74225 12.7993 8.74225 12.5517C8.74225 12.3041 8.54155 12.1034 8.29398 12.1034C8.0464 12.1034 7.8457 12.3041 7.8457 12.5517C7.8457 12.7993 8.0464 13 8.29398 13Z" fill="black"/>
<path d="M5.60453 13.8966C5.8521 13.8966 6.0528 13.6959 6.0528 13.4483C6.0528 13.2007 5.8521 13 5.60453 13C5.35695 13 5.15625 13.2007 5.15625 13.4483C5.15625 13.6959 5.35695 13.8966 5.60453 13.8966Z" fill="black"/>
<path d="M4.70804 14.7931C4.95562 14.7931 5.15632 14.5924 5.15632 14.3448C5.15632 14.0973 4.95562 13.8966 4.70804 13.8966C4.46047 13.8966 4.25977 14.0973 4.25977 14.3448C4.25977 14.5924 4.46047 14.7931 4.70804 14.7931Z" fill="black"/>
</svg>
