<svg width="14" height="16" viewBox="0 0 14 16" fill="none" xmlns="http://www.w3.org/2000/svg">
<path fill-rule="evenodd" clip-rule="evenodd" d="M5.66671 12.3531C2.72119 12.3531 0.333374 9.78681 0.333374 6.62115C0.333374 3.45549 2.72119 0.889221 5.66671 0.889221C8.61223 0.889221 11 3.45549 11 6.62115C11 7.94574 10.582 9.16539 9.87995 10.136L13.4714 13.9959L12.5286 15.0092L8.93714 11.1493C8.03401 11.9038 6.89918 12.3531 5.66671 12.3531ZM9.66671 6.62116C9.66671 8.9954 7.87584 10.9201 5.66671 10.9201C3.45757 10.9201 1.66671 8.9954 1.66671 6.62116C1.66671 4.24691 3.45757 2.32221 5.66671 2.32221C7.87584 2.32221 9.66671 4.24691 9.66671 6.62116Z" fill="#9C9C9C"/>
</svg>
