<svg width="16" height="16" viewBox="0 0 16 16" fill="none" xmlns="http://www.w3.org/2000/svg">
<path d="M8.00705 6.85724H12.007C12.0904 6.85724 12.1589 6.8305 12.2123 6.77687C12.2659 6.7233 12.2928 6.6549 12.2928 6.5715V4.85724C12.2928 4.77384 12.2659 4.70544 12.2123 4.65187C12.1589 4.59837 12.0904 4.5715 12.007 4.5715H8.00705C7.92368 4.5715 7.85529 4.59824 7.80168 4.65187C7.74821 4.70544 7.72137 4.77384 7.72137 4.85724V6.5715C7.72137 6.6549 7.74811 6.7233 7.80168 6.77687C7.85529 6.83041 7.92368 6.85724 8.00705 6.85724Z" fill="#86879D"/>
<path d="M8.00711 2.2857H10.2928C10.3761 2.2857 10.4446 2.25897 10.498 2.2054C10.5517 2.15179 10.5782 2.0834 10.5782 2.00003V0.285709C10.5782 0.202429 10.5517 0.133942 10.498 0.0803401C10.4446 0.0268634 10.3761 0 10.2928 0H8.00711C7.92374 0 7.85535 0.0267383 7.80174 0.0803088C7.7483 0.133942 7.72144 0.202429 7.72144 0.285678V2C7.72144 2.08337 7.74817 2.15176 7.80174 2.20536C7.85538 2.25884 7.92374 2.2857 8.00711 2.2857Z" fill="#86879D"/>
<path d="M6.007 12.5714H4.29271V0.285709C4.29271 0.202429 4.266 0.133848 4.2124 0.0803401C4.1588 0.0268634 4.09041 0 4.007 0H2.29268C2.2094 0 2.14082 0.0267383 2.08732 0.0803088C2.03387 0.133942 2.00701 0.202429 2.00701 0.285678V12.5714H0.292689C0.161843 12.5714 0.0725274 12.6309 0.0248675 12.7499C-0.0228236 12.8631 -0.00187079 12.9672 0.0873195 13.0625L2.94444 15.9198C3.00993 15.9731 3.07832 15.9999 3.14981 15.9999C3.22718 15.9999 3.2957 15.9731 3.35518 15.9198L6.20339 13.0715C6.263 13.0002 6.29271 12.9285 6.29271 12.8574C6.29271 12.7738 6.26584 12.7055 6.2124 12.6515C6.15883 12.5982 6.09043 12.5714 6.007 12.5714Z" fill="#86879D"/>
<path d="M15.641 13.7948C15.5874 13.741 15.5191 13.7143 15.4357 13.7143H8.00711C7.92374 13.7143 7.85535 13.741 7.80174 13.7948C7.7483 13.8483 7.72144 13.9168 7.72144 14V15.7143C7.72144 15.7979 7.74817 15.866 7.80174 15.9198C7.85538 15.9733 7.92374 16 8.00711 16H15.4356C15.519 16 15.5874 15.9733 15.641 15.9198C15.6945 15.866 15.7213 15.7979 15.7213 15.7143V14C15.7214 13.9168 15.6945 13.8483 15.641 13.7948Z" fill="#86879D"/>
<path d="M8.00705 11.4285H13.7214C13.8047 11.4285 13.8732 11.4018 13.9269 11.3483C13.9803 11.2948 14.007 11.2263 14.007 11.143V9.42856C14.007 9.34531 13.9803 9.27679 13.9269 9.22331C13.8732 9.1698 13.8047 9.14307 13.7214 9.14307H8.00705C7.92368 9.14307 7.85529 9.1698 7.80168 9.22331C7.74821 9.27682 7.72137 9.34531 7.72137 9.42856V11.143C7.72137 11.2263 7.74811 11.2948 7.80168 11.3483C7.85529 11.4018 7.92368 11.4285 8.00705 11.4285Z" fill="#86879D"/>
</svg>
