<svg width="20" height="20" viewBox="0 0 20 20" fill="none" xmlns="http://www.w3.org/2000/svg">
<path d="M6.07035 7.41394H0V12.6168H6.07035V7.41394Z" fill="white"/>
<path d="M12.445 13.7882H7.2421V20H12.445V13.7882Z" fill="white"/>
<path d="M20 7.41394H13.6168V12.6168H20V7.41394Z" fill="white"/>
<path d="M12.445 7.41394H7.2421V12.6168H12.445V7.41394Z" fill="white"/>
<path d="M12.445 0H7.2421V6.24223H12.445V0Z" fill="white"/>
<path d="M6.07039 13.7884H0V17.7779C0 19.0031 0.996836 20 2.22215 20H6.07043V13.7884H6.07039Z" fill="white"/>
<path d="M17.7779 0H13.6166V6.24215H20V2.22215C20 0.996836 19.0031 0 17.7779 0Z" fill="white"/>
<path d="M13.6166 13.7884V20H17.7778C19.0031 20 20 19.0031 20 17.7778V13.7884H13.6166Z" fill="white"/>
<path d="M2.22215 0C0.996836 0 0 0.996836 0 2.22215V6.24219H6.07039V6.24215V0H2.22215Z" fill="white"/>
</svg>
