<svg width="16" height="18" viewBox="0 0 16 18" fill="none" xmlns="http://www.w3.org/2000/svg">
<path fill-rule="evenodd" clip-rule="evenodd" d="M5 3.99841H3.5V3.17957H2V5.63611H14V3.17957H12.5V3.99841H11V3.17957H5V3.99841ZM2 15.4623V7.2738H14V15.4623H2ZM11 1.54187H5V0.723022H3.5V1.54187H2C1.17157 1.54187 0.5 2.27509 0.5 3.17957V15.4623C0.5 16.3668 1.17157 17.1 2 17.1H14C14.8284 17.1 15.5 16.3668 15.5 15.4623V3.17957C15.5 2.27509 14.8284 1.54187 14 1.54187H12.5V0.723022H11V1.54187ZM10.4697 8.33249L7.25 11.8477L5.53033 9.97018L4.46967 11.1282L7.25 14.1638L11.5303 9.49051L10.4697 8.33249Z" fill="#9C9C9C"/>
</svg>
