<svg width="22" height="22" viewBox="0 0 22 22" fill="none" xmlns="http://www.w3.org/2000/svg">
<path fill-rule="evenodd" clip-rule="evenodd" d="M8 0.525002H14V5.335C15.79 6.375 17 8.305 17 10.525C17 13.835 14.31 16.525 11 16.525C7.69 16.525 5 13.835 5 10.525C5 8.305 6.21 6.375 8 5.335V0.525002ZM12 2.525V6.485L13 7.065C14.24 7.785 15 9.105 15 10.525C15 12.735 13.21 14.525 11 14.525C8.79 14.525 7 12.735 7 10.525C7 9.105 7.77 7.785 9 7.065L10 6.485V2.525H12ZM3 9.475H0V11.475H3V9.475ZM2.55 17.565L3.96 18.975L5.75 17.175L4.34 15.765L2.55 17.565ZM12 18.475V21.475H10V18.475H12ZM19 9.475H22V11.475H19V9.475ZM18.03 18.985L16.24 17.185L17.64 15.785L19.44 17.575L18.03 18.985Z" fill="#27AE60"/>
</svg>
